<svg width="34" height="36" viewBox="0 0 34 36" fill="none" xmlns="http://www.w3.org/2000/svg">
<path d="M0.998843 34.5678C0.898891 34.5678 0.817871 34.4866 0.817871 34.3865C0.817871 34.2863 0.898891 34.2052 0.998843 34.2052H3.60487V15.8798V12.7804C3.60487 12.5167 3.71239 12.2767 3.88579 12.103C4.05919 11.9292 4.29846 11.8215 4.56198 11.8215H5.03018C5.09429 11.3312 5.43857 10.8517 5.96005 10.4936C6.1337 10.3742 6.32754 10.268 6.53729 10.179C6.53678 10.1734 6.53653 10.1679 6.53653 10.1621C6.53653 9.85101 6.70842 9.5736 6.98656 9.37633C7.20564 9.22106 7.49236 9.11561 7.80987 9.08627V7.39726C7.80987 7.29711 7.89089 7.21594 7.99084 7.21594C8.0908 7.21594 8.17182 7.29711 8.17182 7.39726V9.08627C8.48934 9.1156 8.77606 9.22106 8.99487 9.37633C9.27277 9.57333 9.4449 9.85099 9.4449 10.1621C9.4449 10.1679 9.44465 10.1734 9.44414 10.179C9.65389 10.268 9.84773 10.3742 10.0214 10.4936C10.5426 10.8519 10.8871 11.3312 10.9512 11.8215H12.0149V10.4316C12.0149 10.2746 12.0787 10.1322 12.182 10.0288C12.2849 9.92561 12.4273 9.86138 12.584 9.86138H13.4167V7.78271C13.4167 7.62567 13.4806 7.48329 13.5838 7.37986C13.6868 7.27668 13.8291 7.21246 13.9859 7.21246H14.7251V5.47819C14.7251 5.32115 14.789 5.17878 14.8922 5.07534C14.9952 4.97216 15.1375 4.90794 15.2943 4.90794H16.2203V1.18019C16.2203 0.941726 16.5823 0.941726 16.5823 1.18019V4.90794H17.5083C17.6651 4.90794 17.8072 4.97192 17.9104 5.07534C18.0134 5.17852 18.0775 5.32115 18.0775 5.47819V7.21246H18.8167C18.9735 7.21246 19.1156 7.27644 19.2188 7.37986C19.3218 7.48304 19.3859 7.62567 19.3859 7.78271V9.86138H20.2186C20.3753 9.86138 20.5174 9.92536 20.6207 10.0288C20.7237 10.132 20.7878 10.2746 20.7878 10.4316V11.8255H22.3466C22.4011 11.3385 22.6987 10.8603 23.1495 10.5012C23.2585 10.4144 23.3481 10.3507 23.4741 10.2791C23.4609 9.91194 23.6293 9.58371 23.9221 9.3761C24.1412 9.22083 24.4279 9.11538 24.7454 9.08604V7.39702C24.7454 7.29688 24.8264 7.21571 24.9264 7.21571C25.0263 7.21571 25.1073 7.29688 25.1073 7.39702V9.08604C25.4249 9.11537 25.7116 9.22082 25.9306 9.3761C26.2085 9.57309 26.3807 9.85076 26.3807 10.1618C26.3807 10.1992 26.3693 10.2339 26.3501 10.2627C26.4761 10.3343 26.5942 10.4145 26.7035 10.5012C27.1543 10.8603 27.4519 11.3385 27.5064 11.8255H28.2409C28.5044 11.8255 28.7436 11.9333 28.9171 12.107C29.0905 12.2807 29.198 12.5205 29.198 12.7845V34.2056H32.4607C32.5607 34.2056 32.6417 34.2868 32.6417 34.387C32.6417 34.4871 32.5607 34.5683 32.4607 34.5683H1.00131L0.998843 34.5678ZM6.98226 34.2052C8.64434 34.2052 12.0146 34.2052 12.0146 32.3348V31.7694C11.2518 32.8001 9.40355 32.8818 7.63751 32.9597C5.84576 33.0386 4.14608 33.1137 3.98021 34.2051L6.98226 34.2052ZM12.0146 33.3901C11.7032 33.7725 11.2153 34.0309 10.6486 34.2052H12.0146V33.3901ZM19.0957 13.7227C19.0957 13.6625 19.1444 13.614 19.2042 13.614C19.2643 13.614 19.3128 13.6628 19.3128 13.7227V27.0231C19.3128 27.0833 19.2641 27.1319 19.2042 27.1319C19.1442 27.1319 19.0957 27.0831 19.0957 27.0231V13.7227ZM23.8363 10.0994C24.1669 9.96484 24.5357 9.8867 24.9244 9.8867C25.3131 9.8867 25.6818 9.96509 26.0125 10.0994C25.9908 9.93551 25.8833 9.78529 25.7207 9.66998C25.52 9.52761 25.2386 9.43961 24.9244 9.43961C24.6102 9.43961 24.3287 9.52761 24.1281 9.66998C23.9655 9.78529 23.858 9.93576 23.8363 10.0994ZM6.91377 10.0427C7.2477 9.94309 7.61089 9.88645 7.99076 9.88645C8.37062 9.88645 8.73409 9.94309 9.06801 10.0427C9.03167 9.90112 8.93096 9.77164 8.78734 9.66973C8.58668 9.52736 8.30526 9.43935 7.99103 9.43935C7.67679 9.43935 7.39537 9.52736 7.19473 9.66973C7.05111 9.77164 6.95041 9.90086 6.91405 10.0427H6.91377ZM22.7094 11.8245H27.1393C27.0843 11.448 26.8404 11.0734 26.4762 10.7834C26.0736 10.4627 25.5272 10.2491 24.9242 10.2491C24.3214 10.2491 23.7748 10.463 23.3721 10.7834C23.0082 11.0732 22.7644 11.448 22.7091 11.8245H22.7094ZM3.96671 13.1327C4.625 12.4489 6.09265 12.3839 7.62168 12.3167C8.2648 12.2883 8.91953 12.2595 9.52076 12.1829H4.56187C4.39832 12.1829 4.24966 12.2501 4.14163 12.3581C4.0336 12.4664 3.96672 12.6153 3.96672 12.7792L3.96671 13.1327ZM11.0523 12.1828C11.0495 12.1841 11.0468 12.1854 11.0437 12.1866C10.1296 12.5677 8.863 12.6236 7.63733 12.6777C5.75118 12.7609 3.96692 12.8396 3.96666 14.1042V14.9069C4.62495 14.2231 6.0926 14.1581 7.62163 14.0908C9.69763 13.9993 11.896 13.9022 12.0093 12.1828H11.052L11.0523 12.1828ZM12.0145 13.2614C11.2517 14.2921 9.40342 14.3738 7.63739 14.4517C5.75097 14.5349 3.96671 14.6136 3.96671 15.8785V16.5893C4.625 15.9055 6.09265 15.8405 7.62168 15.7733C9.75318 15.6792 12.0142 15.5796 12.0142 13.7242V13.2617L12.0145 13.2614ZM12.0145 14.9438C11.2517 15.9745 9.40342 16.0562 7.63739 16.1341C5.75097 16.2173 3.96671 16.296 3.96671 17.5609V18.2717C4.625 17.5879 6.09265 17.5229 7.62168 17.4557C9.75318 17.3616 12.0142 17.262 12.0142 15.4066V14.9441L12.0145 14.9438ZM12.0145 16.6262C11.2517 17.657 9.40342 17.7387 7.63739 17.8165C5.75097 17.8997 3.96671 17.9784 3.96671 19.2433V19.9541C4.625 19.2704 6.09265 19.2054 7.62168 19.1381C9.75318 19.044 12.0142 18.9444 12.0142 17.089V16.6265L12.0145 16.6262ZM12.0145 18.3086C11.2517 19.3394 9.40342 19.4211 7.63739 19.4989C5.75097 19.5821 3.96671 19.6608 3.96671 20.9257V21.6365C4.625 20.9528 6.09265 20.8878 7.62168 20.8205C9.75318 20.7264 12.0142 20.6268 12.0142 18.7714V18.3089L12.0145 18.3086ZM12.0145 19.991C11.2517 21.0218 9.40342 21.1035 7.63739 21.1814C5.75097 21.2646 3.96671 21.3432 3.96671 22.6081V23.3189C4.625 22.6352 6.09265 22.5702 7.62168 22.5029C9.75318 22.4088 12.0142 22.3092 12.0142 20.4538V19.9913L12.0145 19.991ZM12.0145 21.6734C11.2517 22.7042 9.40342 22.7859 7.63739 22.8638C5.75097 22.947 3.96671 23.0256 3.96671 24.2905V25.0014C4.625 24.3176 6.09265 24.2526 7.62168 24.1853C9.75318 24.0913 12.0142 23.9916 12.0142 22.1362V21.6737L12.0145 21.6734ZM12.0145 23.3558C11.2517 24.3866 9.40342 24.4683 7.63739 24.5462C5.75097 24.6294 3.96671 24.708 3.96671 25.9729V26.6838C4.625 26 6.09265 25.935 7.62168 25.8677C9.75318 25.7737 12.0142 25.674 12.0142 23.8187V23.3561L12.0145 23.3558ZM12.0145 25.0383C11.2517 26.069 9.40342 26.1507 7.63739 26.2286C5.75097 26.3118 3.96671 26.3904 3.96671 27.6554V28.3662C4.625 27.6824 6.09265 27.6174 7.62168 27.5502C9.75318 27.4561 12.0142 27.3564 12.0142 25.5011V25.0385L12.0145 25.0383ZM12.0145 26.7207C11.2517 27.7514 9.40342 27.8331 7.63739 27.911C5.75097 27.9942 3.96671 28.0728 3.96671 29.3378V30.0486C4.625 29.3648 6.09265 29.2998 7.62168 29.2326C9.75318 29.1385 12.0142 29.0389 12.0142 27.1835V26.721L12.0145 26.7207ZM12.0145 28.4031C11.2517 29.4338 9.40342 29.5155 7.63739 29.5934C5.75097 29.6766 3.96671 29.7553 3.96671 31.0202V31.731C4.625 31.0472 6.09265 30.9822 7.62168 30.915C9.75318 30.8209 12.0142 30.7213 12.0142 28.8659V28.4034L12.0145 28.4031ZM12.0145 30.0855C11.2517 31.1162 9.40342 31.1979 7.63739 31.2758C5.75097 31.359 3.96671 31.4377 3.96671 32.7026V33.4134C4.625 32.7296 6.09265 32.6647 7.62168 32.5974C9.75318 32.5033 12.0142 32.4037 12.0142 30.5483V30.0858L12.0145 30.0855ZM16.4149 11.2221C16.4573 11.1799 16.5257 11.1801 16.5678 11.2226C16.61 11.2651 16.6097 11.3336 16.5673 11.3759L13.461 14.4684C13.4186 14.5106 13.3502 14.5104 13.3081 14.4679C13.2659 14.4254 13.2662 14.3569 13.3086 14.3147L16.4149 11.2221ZM14.9709 11.2709C15.0133 11.2285 15.0819 11.2285 15.1243 11.2709C15.1667 11.3134 15.1667 11.3822 15.1243 11.4247L13.5226 13.0295C13.4802 13.072 13.4115 13.072 13.3691 13.0295C13.3267 12.987 13.3267 12.9182 13.3691 12.8757L14.9709 11.2709ZM16.3073 33.3103C16.2649 33.3526 16.1965 33.3523 16.1544 33.3098C16.1122 33.2674 16.1125 33.1988 16.1549 33.1566L19.2612 30.0641C19.3036 30.0218 19.372 30.0221 19.4141 30.0646C19.4563 30.107 19.456 30.1756 19.4136 30.2178L16.3073 33.3103ZM17.7513 33.2615C17.7089 33.304 17.6403 33.304 17.5979 33.2615C17.5555 33.2191 17.5555 33.1503 17.5979 33.1078L19.1996 31.503C19.242 31.4605 19.3107 31.4605 19.3531 31.503C19.3955 31.5455 19.3955 31.6143 19.3531 31.6567L17.7513 33.2615ZM22.4518 32.6478C22.3518 32.6478 22.2708 32.5666 22.2708 32.4665C22.2708 32.3663 22.3518 32.2852 22.4518 32.2852H27.363C27.4629 32.2852 27.544 32.3663 27.544 32.4665C27.544 32.5666 27.4629 32.6478 27.363 32.6478H22.4518ZM22.4518 30.7876C22.3518 30.7876 22.2708 30.7064 22.2708 30.6063C22.2708 30.5061 22.3518 30.425 22.4518 30.425H27.363C27.4629 30.425 27.544 30.5061 27.544 30.6063C27.544 30.7064 27.4629 30.7876 27.363 30.7876H22.4518ZM22.4518 28.9274C22.3518 28.9274 22.2708 28.8462 22.2708 28.7461C22.2708 28.646 22.3518 28.5648 22.4518 28.5648H27.363C27.4629 28.5648 27.544 28.646 27.544 28.7461C27.544 28.8462 27.4629 28.9274 27.363 28.9274H22.4518ZM22.4518 27.0672C22.3518 27.0672 22.2708 26.9861 22.2708 26.8859C22.2708 26.7858 22.3518 26.7046 22.4518 26.7046H27.363C27.4629 26.7046 27.544 26.7858 27.544 26.8859C27.544 26.9861 27.4629 27.0672 27.363 27.0672H22.4518ZM22.4518 25.2071C22.3518 25.2071 22.2708 25.1259 22.2708 25.0257C22.2708 24.9256 22.3518 24.8444 22.4518 24.8444H27.363C27.4629 24.8444 27.544 24.9256 27.544 25.0257C27.544 25.1259 27.4629 25.2071 27.363 25.2071H22.4518ZM22.4518 23.3469C22.3518 23.3469 22.2708 23.2657 22.2708 23.1656C22.2708 23.0654 22.3518 22.9842 22.4518 22.9842H27.363C27.4629 22.9842 27.544 23.0654 27.544 23.1656C27.544 23.2657 27.4629 23.3469 27.363 23.3469H22.4518ZM22.4518 21.4867C22.3518 21.4867 22.2708 21.4055 22.2708 21.3054C22.2708 21.2052 22.3518 21.1241 22.4518 21.1241H27.363C27.4629 21.1241 27.544 21.2052 27.544 21.3054C27.544 21.4055 27.4629 21.4867 27.363 21.4867H22.4518ZM22.4518 19.6265C22.3518 19.6265 22.2708 19.5453 22.2708 19.4452C22.2708 19.3451 22.3518 19.2639 22.4518 19.2639H27.363C27.4629 19.2639 27.544 19.3451 27.544 19.4452C27.544 19.5453 27.4629 19.6265 27.363 19.6265H22.4518ZM22.4518 17.7663C22.3518 17.7663 22.2708 17.6852 22.2708 17.585C22.2708 17.4849 22.3518 17.4037 22.4518 17.4037H27.363C27.4629 17.4037 27.544 17.4849 27.544 17.585C27.544 17.6852 27.4629 17.7663 27.363 17.7663H22.4518ZM22.4518 15.9061C22.3518 15.9061 22.2708 15.825 22.2708 15.7248C22.2708 15.6247 22.3518 15.5435 22.4518 15.5435H27.363C27.4629 15.5435 27.544 15.6247 27.544 15.7248C27.544 15.825 27.4629 15.9061 27.363 15.9061H22.4518ZM22.4518 14.046C22.3518 14.046 22.2708 13.9648 22.2708 13.8646C22.2708 13.7645 22.3518 13.6833 22.4518 13.6833H27.363C27.4629 13.6833 27.544 13.7645 27.544 13.8646C27.544 13.9648 27.4629 14.046 27.363 14.046H22.4518ZM5.39617 11.8191H10.5853C10.5194 11.4484 10.2375 11.0784 9.81773 10.7899C9.34448 10.4647 8.70113 10.2477 7.99063 10.2477C7.28039 10.2477 6.63677 10.4647 6.16353 10.7899C5.74379 11.0784 5.46189 11.4484 5.39598 11.8191H5.39617ZM20.786 12.1858V34.2038H28.8337V12.7827C28.8337 12.6188 28.7666 12.4699 28.6588 12.3616C28.5508 12.2534 28.4021 12.1864 28.2386 12.1864H20.786L20.786 12.1858ZM15.0863 7.21035H17.7146V5.47609C17.7146 5.41919 17.6911 5.36735 17.6535 5.32967C17.6159 5.29199 17.5641 5.26847 17.5074 5.26847H15.2933C15.2365 5.26847 15.1847 5.29199 15.1471 5.32967C15.1095 5.36735 15.0861 5.41919 15.0861 5.47609V7.21035H15.0863ZM13.7781 9.85904H19.0225V7.78037C19.0225 7.72347 18.999 7.67163 18.9614 7.63395C18.9238 7.59627 18.8721 7.57275 18.8153 7.57275H13.9848C13.928 7.57275 13.8763 7.59627 13.8387 7.63395C13.8011 7.67163 13.7776 7.72347 13.7776 7.78037V9.85904H13.7781ZM12.3766 34.2038H20.4243V10.4294C20.4243 10.3725 20.4008 10.3206 20.3632 10.283C20.3256 10.2453 20.2739 10.2218 20.2171 10.2218H12.5835C12.5268 10.2218 12.475 10.2453 12.4374 10.283C12.3998 10.3206 12.3763 10.3725 12.3763 10.4294V34.2031L12.3766 34.2038Z" fill="white" stroke="white"/>
</svg>
