<svg width="35" height="36" viewBox="0 0 35 36" fill="none" xmlns="http://www.w3.org/2000/svg">
<path d="M10.6704 0.57379C8.89899 0.871304 7.39696 1.65566 6.19129 2.91333C5.24832 3.89377 4.62191 4.92831 4.25145 6.11837C3.92814 7.16643 3.9012 7.49099 3.90794 10.2768C3.90794 12.711 3.92141 12.9139 4.04939 13.3939C4.35922 14.5164 4.92501 15.294 5.63898 15.5915C5.93534 15.7132 5.94208 15.7132 5.97576 16.1257C6.07005 17.079 6.54828 18.3502 7.16795 19.2766C7.56535 19.8716 8.58242 20.8656 9.17515 21.2307L9.66011 21.535L9.64664 22.0016L9.62643 22.4749L9.28965 22.5492C8.8249 22.6507 8.36015 22.8873 7.94928 23.2254C7.6125 23.4959 7.59903 23.5026 6.7975 23.5838C5.77369 23.6852 5.15402 23.8543 4.30534 24.2735C2.44632 25.1795 1.13962 26.8091 0.614247 28.8714C0.4728 29.4124 0.466064 29.6017 0.466064 31.9142V34.3822L0.620982 34.6053C0.708545 34.727 0.897141 34.8826 1.03859 34.9569C1.30127 35.0922 1.48313 35.0922 13.0548 35.0922C21.1914 35.0922 24.8623 35.0719 24.997 35.0178C25.098 34.984 25.2664 34.8758 25.3607 34.7811L25.5291 34.6188L25.9332 34.7541C26.1488 34.8285 26.6068 34.9366 26.9368 34.9907C30.4865 35.5722 33.861 33.3409 34.7299 29.8451C34.905 29.1351 34.932 27.8031 34.7905 26.9781C34.3864 24.5845 33.4232 22.5763 31.8269 20.7709L31.2072 20.0812H31.4497C31.9346 20.0812 32.204 19.5065 31.8942 19.1278C31.7797 18.9791 31.6989 18.9656 31.059 18.9317L30.3585 18.8979L30.9176 17.5794C31.2274 16.8559 31.4833 16.1662 31.4833 16.058C31.4833 15.8079 31.2813 15.3548 31.0927 15.1925C30.7963 14.9288 30.4932 14.8815 29.0518 14.8747H27.6643L27.57 14.5908C27.4555 14.2324 27.112 13.8875 26.7887 13.7996C26.6472 13.7591 26.1825 13.7253 25.7581 13.7253C25.1519 13.7253 24.9229 13.7523 24.7141 13.8537C24.2022 14.0836 23.9328 14.5772 24.0338 15.0911C24.0607 15.2128 24.4379 16.1189 24.8758 17.1061L25.6705 18.8979L24.997 18.9317C24.3706 18.9656 24.3234 18.9791 24.1685 19.1549C23.8317 19.5538 24.0944 20.0812 24.6333 20.0812H24.9027L24.3706 20.6425C23.4748 21.5756 22.9359 22.3464 22.3836 23.4756C22.2085 23.8407 22.0536 24.1721 22.0401 24.2126C22.0199 24.2667 21.7976 24.2059 21.3598 24.0436C20.5785 23.7461 20.0059 23.6244 19.1573 23.5567C18.5376 23.5162 18.5106 23.5026 18.2345 23.2525C17.9044 22.9482 17.3993 22.6777 16.9143 22.556L16.5641 22.4681L16.5439 21.9948L16.5237 21.5147L17.0827 21.1428C17.7226 20.7168 18.5915 19.8446 19.0225 19.209C19.6018 18.3435 20.0531 17.1196 20.2013 16.0175C20.2349 15.7267 20.2619 15.6997 20.565 15.5644C21.0971 15.321 21.4204 14.9897 21.7168 14.3811C22.2085 13.3736 22.2085 13.3398 22.2421 10.2362C22.2691 7.16643 22.2421 6.92977 21.8447 6.11161C21.2183 4.84041 19.8578 3.82616 18.3288 3.48807L18.1469 3.4475L18.4904 2.93362C19.0428 2.10869 19.1236 1.79765 18.9215 1.29729C18.7801 0.965967 18.5713 0.749593 18.248 0.600836C17.9987 0.485888 17.7495 0.472364 14.5771 0.479126C12.159 0.485888 11.0274 0.512935 10.6704 0.57379ZM17.8371 1.76385C17.8304 1.81794 17.5946 2.21012 17.305 2.62258L16.7796 3.37989H16.2475C15.776 3.37989 15.6952 3.40017 15.5537 3.54893C15.3382 3.75854 15.3382 4.05605 15.547 4.30624L15.7086 4.49556L16.8806 4.53613C17.8236 4.5767 18.1267 4.61051 18.4837 4.73222C19.7769 5.17173 20.6593 5.98313 20.9826 7.03796C21.0836 7.34899 21.1106 7.65327 21.1106 8.32267V9.19493L20.7469 9.15436C20.4842 9.12055 20.2754 9.14084 20.0261 9.22198C19.6894 9.33693 19.6759 9.33693 19.5816 9.20169C19.3593 8.87713 18.9215 8.70809 17.9381 8.57962C16.2879 8.36324 15.0081 7.92374 14.3211 7.32871C13.9372 7.00415 13.5263 6.82834 13.1289 6.8351C12.6642 6.8351 12.388 6.95005 11.8492 7.36928C10.987 8.03192 10.0104 8.35648 8.29953 8.55933C7.26899 8.67428 6.94568 8.78923 6.62237 9.13408L6.44051 9.33016L6.15088 9.22198C5.94208 9.1476 5.72654 9.12731 5.42344 9.15436L4.99236 9.19493L5.03278 8.36324C5.13381 6.4294 5.85452 4.8066 7.18816 3.53541C8.06378 2.69696 8.95961 2.18983 10.1316 1.85851C10.8456 1.66242 11.3238 1.63537 14.5771 1.6489C17.4936 1.65566 17.8438 1.66918 17.8371 1.76385ZM13.6678 8.2821C14.705 9.06646 16.032 9.52625 17.8438 9.73587C18.7935 9.84405 18.8205 9.87786 18.8205 10.8583C18.8205 11.5615 18.834 11.6359 18.9821 11.8049C19.2044 12.0686 19.5816 12.0686 19.8039 11.8049C19.9386 11.6494 19.9655 11.548 19.9655 11.1491C19.9655 10.7095 19.979 10.6555 20.1609 10.4729C20.3697 10.2633 20.5583 10.2295 20.794 10.3579C21.0769 10.5067 21.1038 10.6081 21.1106 11.5615C21.1106 12.6434 20.9961 13.2452 20.693 13.8605C20.4774 14.2797 20.4505 14.3135 19.9318 14.5705C19.4604 14.8071 19.3728 14.8747 19.2448 15.1452C19.1707 15.3143 19.0562 15.7605 18.9956 16.1392C18.807 17.3833 18.322 18.3773 17.4801 19.2834C16.8739 19.9325 16.3283 20.3382 15.5739 20.683C14.7993 21.0414 14.274 21.1699 13.3243 21.2104C12.388 21.251 11.7077 21.1428 10.8523 20.8115C9.84871 20.4261 8.73734 19.5335 8.11093 18.6342C7.58556 17.8566 7.20163 16.7477 7.06692 15.605C7.0063 15.1452 6.7975 14.8747 6.31253 14.6381C5.7939 14.3879 5.64571 14.2459 5.44365 13.847C5.18096 13.3196 5.07993 12.7989 5.03951 11.7644C4.9991 10.696 5.03951 10.5337 5.35608 10.3512C5.55815 10.2362 5.83431 10.2903 6.02291 10.4796C6.13067 10.5878 6.15762 10.7095 6.15762 11.0544C6.15762 11.5683 6.27212 11.8387 6.52807 11.9537C6.74361 12.0551 6.93894 12.0078 7.15448 11.8117C7.28919 11.6832 7.30266 11.6156 7.30266 10.9124C7.30266 9.85081 7.32287 9.83053 8.44771 9.6953C10.4145 9.47216 11.6202 9.05294 12.5564 8.2821C12.7787 8.09954 12.9942 7.97783 13.0952 7.97783C13.1963 7.97783 13.4388 8.1063 13.6678 8.2821ZM26.8021 15.9025C26.9907 16.4435 27.1995 16.9573 27.2669 17.0317C27.4487 17.2346 27.8461 17.221 28.0482 17.0047C28.1829 16.8559 28.1964 16.8018 28.156 16.4299L28.1088 16.0242H29.1932C29.9005 16.0242 30.2709 16.0513 30.2709 16.0986C30.2709 16.1324 30.0083 16.7883 29.6849 17.5524L29.0922 18.9317H28.0145H26.9368L26.0679 16.9506C25.5897 15.8687 25.1856 14.9491 25.1721 14.9221C25.1519 14.895 25.4415 14.8815 25.8053 14.8883L26.4653 14.9085L26.8021 15.9025ZM29.5368 20.3652C30.0015 20.5951 30.2305 20.7709 30.8165 21.3592C31.9009 22.4478 32.689 23.7731 33.2346 25.4027C33.632 26.613 33.7398 27.208 33.733 28.2629C33.7263 29.3177 33.605 29.8924 33.1942 30.7241C31.7124 33.7331 27.9472 34.842 25.0576 33.1178C24.4716 32.7661 23.6162 31.9547 23.239 31.38C22.5789 30.3793 22.3028 29.4394 22.3028 28.1953C22.3095 27.2216 22.4105 26.6333 22.8012 25.4635C23.6095 23.0158 25.2664 20.8521 26.8156 20.2232C27.0783 20.115 27.3073 20.088 28.0549 20.088L28.9777 20.0812L29.5368 20.3652ZM11.701 22.2517C12.5766 22.4343 13.9709 22.4005 14.8061 22.1841C15.0957 22.103 15.3449 22.0421 15.3584 22.0421C15.3719 22.0421 15.3853 22.2382 15.3853 22.4816C15.3853 22.9076 15.3719 22.9347 15.1092 23.2254C14.7657 23.5973 14.3009 23.8678 13.6476 24.0774C13.2098 24.2194 13.1222 24.2261 12.7719 24.1518C12.2196 24.0368 11.344 23.5838 11.0476 23.2592C10.8186 23.0023 10.8052 22.9685 10.8052 22.5087C10.8052 22.0962 10.8186 22.0354 10.9129 22.0692C10.9668 22.0895 11.3238 22.1706 11.701 22.2517ZM10.1585 23.976C10.3404 24.1856 10.657 24.4628 10.859 24.5913L11.2228 24.8279L10.9197 25.1254C10.5964 25.4297 10.199 25.9707 10.199 26.0924C10.199 26.2208 10.0373 26.1735 9.66011 25.9233C9.13474 25.5785 8.87205 25.308 8.67672 24.9023C8.4275 24.3952 8.46792 24.2194 8.9192 23.9489C9.24924 23.7528 9.57255 23.6176 9.76114 23.6041C9.80156 23.6041 9.97668 23.7664 10.1585 23.976ZM16.9682 23.7934C17.1164 23.861 17.3387 23.9962 17.4599 24.1044C17.6552 24.2667 17.6754 24.3208 17.635 24.5034C17.5609 24.8685 17.3656 25.1728 16.9884 25.5311C16.6786 25.8219 16.1599 26.1667 16.032 26.1667C16.0117 26.1667 15.9309 26.0383 15.8501 25.8828C15.7693 25.7272 15.5335 25.423 15.318 25.2066L14.9273 24.8212L15.2304 24.6454C15.5403 24.4628 16.261 23.7664 16.261 23.6514C16.261 23.5703 16.6112 23.6379 16.9682 23.7934ZM7.32961 25.6731C7.44411 28.1682 7.72027 30.1697 8.15808 31.6437C8.38709 32.4213 8.79796 33.3747 9.06065 33.7466L9.19536 33.9427H5.38303H1.56396L1.5909 31.7316C1.62458 29.3853 1.63805 29.2298 1.99504 28.3305C2.51368 27.012 3.61157 25.8489 4.89133 25.2607C5.63898 24.9158 6.23171 24.7671 7.17469 24.6859C7.27572 24.6792 7.29593 24.8076 7.32961 25.6731ZM19.6624 24.7874C20.1407 24.8347 20.8209 25.0375 21.2655 25.2607C21.4406 25.3553 21.5821 25.4365 21.5821 25.4432C21.5821 25.4568 21.5416 25.6191 21.4878 25.8016C21.1038 27.1201 21.0365 28.7768 21.3328 29.8924C21.7572 31.5017 22.6126 32.7729 23.9799 33.7939L24.1753 33.9359L20.5178 33.9427H16.8604L16.9884 33.7601C17.433 33.1245 17.9516 31.7857 18.2412 30.5077C18.5645 29.1081 18.8205 26.7888 18.8205 25.2877V24.6724L19.0428 24.7062C19.1573 24.7265 19.4402 24.7603 19.6624 24.7874ZM13.9035 25.6055C14.0719 25.6867 14.3144 25.8354 14.4424 25.9436L14.6714 26.1465L14.3413 26.5454C14.1527 26.7618 13.9776 26.9646 13.9372 26.9917C13.9035 27.0187 13.4994 27.0458 13.0481 27.0458H12.2264L11.8828 26.6265C11.701 26.3899 11.5461 26.1803 11.5461 26.1532C11.5461 26.0586 12.0647 25.6867 12.388 25.5582C12.8124 25.3892 13.4724 25.4094 13.9035 25.6055ZM9.25598 27.0255C9.45804 27.1472 9.8285 27.3162 10.0845 27.3974C10.529 27.5461 10.5559 27.5461 10.758 27.4312C10.9601 27.3095 10.9601 27.3095 11.115 27.4988C11.2026 27.6002 11.2766 27.749 11.2766 27.8234C11.2766 27.9721 10.3943 33.422 10.3539 33.4626C10.3 33.537 10.044 33.2057 9.80829 32.7323C9.18862 31.5288 8.79122 29.7234 8.55548 26.9849L8.51506 26.5589L8.70366 26.6806C8.80469 26.7483 9.05391 26.9038 9.25598 27.0255ZM17.5744 27.0931C17.3589 29.5408 16.9278 31.4138 16.3216 32.5903C15.9781 33.2462 15.8097 33.4694 15.7625 33.3341C15.7423 33.28 15.5403 32.0765 15.318 30.6633C15.089 29.2501 14.8869 28.0127 14.8667 27.918C14.8465 27.7963 14.8869 27.6814 15.0149 27.5326C15.1833 27.3298 15.1967 27.323 15.3584 27.4312C15.4729 27.5056 15.6009 27.5258 15.7693 27.4988C16.0589 27.4515 16.9951 27.0052 17.3387 26.7483C17.4666 26.6536 17.5879 26.5792 17.6013 26.5724C17.6148 26.5724 17.6013 26.8091 17.5744 27.0931ZM14.1999 30.9473C14.4491 32.4686 14.6714 33.7601 14.6848 33.8277C14.7185 33.9359 14.6108 33.9427 13.102 33.9427C12.0176 33.9427 11.4787 33.9224 11.4787 33.8751C11.4787 33.7872 12.3409 28.5671 12.388 28.344C12.4217 28.202 12.4554 28.1953 13.0885 28.1953H13.7486L14.1999 30.9473Z" fill="white"/>
<path d="M27.8058 23.5972C27.6173 23.6716 27.4421 23.9218 27.4421 24.1179C27.4421 24.2058 27.3882 24.2802 27.3007 24.3072C27.0784 24.3816 26.6406 24.8076 26.4789 25.1118C26.2769 25.4973 26.2769 26.2275 26.4789 26.6129C26.7551 27.1336 27.2401 27.492 27.7654 27.5596C28.2235 27.6204 28.311 27.6542 28.4525 27.803C28.6411 28.0126 28.6276 28.3642 28.4188 28.5671C28.1763 28.8172 27.9136 28.7902 27.5432 28.4656C27.1862 28.1546 26.9504 28.1208 26.6743 28.3372C26.5396 28.4453 26.4991 28.5333 26.4991 28.7429C26.4991 28.9592 26.5463 29.0607 26.7686 29.3041C26.9168 29.4664 27.1256 29.6354 27.2333 29.6827C27.3748 29.7368 27.4421 29.8247 27.4691 29.9803C27.523 30.2507 27.6846 30.413 27.954 30.4671C28.1157 30.4941 28.2032 30.4671 28.3716 30.3251C28.4929 30.2237 28.5872 30.0817 28.5872 29.9938C28.5872 29.8923 28.6882 29.7774 28.9374 29.6151C29.8737 28.993 30.0151 27.7286 29.2271 26.9443C28.9307 26.64 28.4592 26.4371 28.0618 26.4371C27.7789 26.4371 27.4421 26.1261 27.4421 25.8624C27.4421 25.6054 27.7789 25.2876 28.0483 25.2876C28.2032 25.2876 28.3245 25.3553 28.5198 25.5581C28.7152 25.761 28.8364 25.8286 28.9913 25.8286C29.254 25.8286 29.5975 25.5108 29.5975 25.2674C29.5975 25.0239 29.254 24.5912 28.9037 24.4086C28.6747 24.2869 28.5872 24.199 28.5872 24.0908C28.5872 23.7595 28.1224 23.462 27.8058 23.5972Z" fill="white"/>
</svg>
