<svg width="35" height="35" viewBox="0 0 35 35" fill="none" xmlns="http://www.w3.org/2000/svg">
<path d="M32.0059 30.668V28.162H29.5V12.1491H32.0059V8.58132H29.9672L17.5222 0.765991L5.0771 8.58132H3.03839V12.1491H5.54432V28.162H3.03839V30.668H0.617188V34.2358H34.3845V30.668H32.0059ZM28.4381 28.1196H25.8048L25.8045 12.1492H28.4378L28.4381 28.1196ZM14.9737 28.1196H10.3013L10.3016 12.1492H14.974L14.9737 28.1196ZM16.0355 12.1492H18.6689V28.1621H16.0355V12.1492ZM19.6884 12.1492H24.7429V28.1621H19.6884V12.1492ZM17.5222 1.99775L27.971 8.53869L7.07348 8.53899L17.5222 1.99775ZM4.10026 11.0873V9.64326H30.9442V11.0873H4.10026ZM6.60618 12.1492H9.23953V28.1621H6.60618V12.1492ZM4.10026 29.1815H30.9867V30.6256H4.10026V29.1815ZM33.3228 33.1739H1.72168V31.7298H33.4085L33.4082 33.1739H33.3228Z" fill="white"/>
</svg>
