<svg width="413" height="443" viewBox="0 0 413 443" fill="none" xmlns="http://www.w3.org/2000/svg">
<path d="M290.958 44.053L196 148.453M109 378.5L235.5 332.827M190.5 198.814L248.748 295.5" stroke="white" stroke-opacity="0.8"/>
<path d="M224.186 360.143L224.182 362.163C223.596 361.842 223.063 361.621 222.584 361.5C222.117 361.366 221.517 361.299 220.784 361.297C219.437 361.295 218.31 361.753 217.401 362.671C216.506 363.576 216.058 364.782 216.055 366.289C216.052 367.822 216.497 369.043 217.388 369.951C218.28 370.859 219.459 371.315 220.926 371.317C222.219 371.32 223.306 370.988 224.188 370.323L224.184 372.403C223.356 372.949 222.209 373.22 220.742 373.217C218.729 373.214 217.083 372.584 215.806 371.328C214.528 370.073 213.891 368.391 213.895 366.285C213.899 364.245 214.542 362.586 215.824 361.308C217.12 360.031 218.754 359.394 220.727 359.397C222.167 359.4 223.32 359.648 224.186 360.143ZM230.692 373.255C229.198 373.252 228.026 372.764 227.174 371.789C226.323 370.814 225.898 369.58 225.901 368.086C225.904 366.566 226.346 365.307 227.228 364.309C228.11 363.297 229.271 362.792 230.711 362.795C232.257 362.798 233.45 363.293 234.288 364.282C235.126 365.256 235.544 366.504 235.541 368.024C235.538 369.544 235.103 370.796 234.234 371.781C233.379 372.767 232.198 373.258 230.692 373.255ZM230.688 364.455C229.821 364.453 229.147 364.799 228.666 365.491C228.184 366.171 227.943 367.017 227.941 368.03C227.939 369.03 228.184 369.877 228.677 370.571C229.169 371.252 229.841 371.594 230.695 371.595C231.601 371.597 232.289 371.265 232.756 370.599C233.238 369.933 233.479 369.087 233.481 368.06C233.483 367.007 233.258 366.146 232.806 365.479C232.354 364.798 231.648 364.457 230.688 364.455ZM239.719 362.951L239.716 364.571C240.292 363.399 241.246 362.814 242.58 362.816C244.1 362.819 245.072 363.474 245.496 364.782C245.777 364.156 246.185 363.676 246.719 363.344C247.253 362.998 247.853 362.826 248.52 362.827C249.56 362.829 250.346 363.137 250.878 363.751C251.424 364.366 251.695 365.213 251.693 366.293L251.681 373.113L249.721 373.109L249.733 366.709C249.735 365.256 249.15 364.528 247.977 364.526C247.39 364.525 246.863 364.784 246.395 365.303C245.941 365.823 245.713 366.589 245.711 367.602L245.701 373.102L243.741 373.099L243.753 366.699C243.755 365.245 243.163 364.518 241.977 364.515C241.403 364.514 240.883 364.773 240.415 365.293C239.948 365.812 239.713 366.578 239.711 367.591L239.701 373.091L237.741 373.088L237.759 362.948L239.719 362.951ZM259.025 371.546C259.812 371.548 260.459 371.242 260.967 370.63C261.475 370.004 261.73 369.131 261.732 368.011C261.734 366.958 261.489 366.124 260.996 365.51C260.504 364.882 259.878 364.568 259.118 364.566C258.358 364.565 257.698 364.844 257.137 365.403C256.589 365.948 256.314 366.821 256.312 368.021C256.31 369.195 256.581 370.075 257.127 370.663C257.686 371.25 258.319 371.545 259.025 371.546ZM256.321 362.981L256.318 364.541C257.014 363.409 258.055 362.844 259.441 362.847C260.775 362.849 261.827 363.338 262.599 364.313C263.37 365.274 263.755 366.501 263.752 367.995C263.749 369.528 263.347 370.794 262.545 371.792C261.757 372.778 260.702 373.269 259.382 373.267C258.036 373.264 257.01 372.702 256.305 371.581L256.296 377.001L254.336 376.998L254.361 362.978L256.321 362.981ZM271.292 368.628L269.772 368.625C269.026 368.624 268.459 368.77 268.072 369.062C267.698 369.355 267.51 369.728 267.509 370.181C267.509 370.648 267.655 371.015 267.947 371.282C268.24 371.549 268.667 371.683 269.227 371.684C269.867 371.686 270.367 371.513 270.728 371.167C271.102 370.808 271.289 370.342 271.29 369.768L271.292 368.628ZM266.198 365.419L266.202 363.519C266.989 363.067 268.029 362.842 269.323 362.845C271.976 362.849 273.3 364.138 273.296 366.712L273.284 373.152L271.344 373.148L271.346 371.948C270.825 372.801 269.911 373.226 268.604 373.223C267.644 373.222 266.871 372.947 266.285 372.399C265.713 371.838 265.428 371.131 265.429 370.278C265.431 369.304 265.799 368.552 266.533 368.02C267.268 367.474 268.295 367.203 269.615 367.205L271.295 367.208L271.296 366.628C271.297 365.935 271.131 365.415 270.799 365.067C270.466 364.707 269.913 364.526 269.14 364.524C268.06 364.522 267.079 364.821 266.198 365.419ZM277.903 363.02L277.9 364.76C278.502 363.508 279.557 362.883 281.063 362.886C282.063 362.888 282.856 363.196 283.442 363.81C284.027 364.424 284.319 365.258 284.317 366.312L284.305 373.172L282.345 373.168L282.356 366.768C282.357 366.061 282.178 365.521 281.819 365.147C281.473 364.773 281.007 364.586 280.42 364.585C279.727 364.583 279.133 364.856 278.639 365.401C278.144 365.934 277.896 366.687 277.895 367.66L277.885 373.16L275.925 373.157L275.943 363.017L277.903 363.02ZM287.02 373.177L287.039 363.037L289.019 363.04L289 373.18L287.02 373.177ZM287.143 360.817C286.916 360.576 286.804 360.283 286.804 359.936C286.805 359.589 286.919 359.296 287.146 359.057C287.386 358.817 287.68 358.698 288.026 358.698C288.373 358.699 288.666 358.819 288.906 359.06C289.145 359.3 289.265 359.594 289.264 359.941C289.264 360.274 289.143 360.56 288.903 360.8C288.662 361.039 288.369 361.159 288.022 361.158C287.675 361.158 287.382 361.044 287.143 360.817ZM298.153 367.397L298.154 367.037C298.128 366.277 297.923 365.676 297.537 365.235C297.151 364.781 296.598 364.554 295.878 364.552C295.211 364.551 294.638 364.797 294.157 365.289C293.676 365.769 293.375 366.468 293.253 367.388L298.153 367.397ZM299.407 370.899L299.403 372.659C298.656 373.084 297.669 373.296 296.442 373.294C294.869 373.291 293.617 372.815 292.685 371.867C291.753 370.918 291.289 369.678 291.292 368.144C291.295 366.518 291.724 365.245 292.579 364.327C293.434 363.395 294.521 362.93 295.841 362.932C297.134 362.935 298.16 363.343 298.919 364.158C299.677 364.959 300.055 366.12 300.053 367.64C300.052 368.053 300.011 368.487 299.93 368.94L293.27 368.928C293.402 369.808 293.774 370.482 294.387 370.95C294.999 371.418 295.772 371.652 296.705 371.654C297.785 371.656 298.686 371.404 299.407 370.899ZM308.148 363.415L308.145 365.195C307.492 364.807 306.653 364.612 305.626 364.61C305.159 364.609 304.786 364.715 304.505 364.928C304.238 365.141 304.104 365.421 304.104 365.767C304.104 365.861 304.11 365.954 304.123 366.047C304.15 366.127 304.19 366.214 304.243 366.308C304.296 366.388 304.343 366.461 304.382 366.528C304.436 366.581 304.516 366.641 304.622 366.708C304.729 366.775 304.809 366.835 304.862 366.889C304.928 366.929 305.028 366.982 305.161 367.049C305.308 367.116 305.415 367.17 305.481 367.21C305.548 367.237 305.661 367.29 305.821 367.37C305.994 367.437 306.114 367.484 306.181 367.511C306.967 367.859 307.579 368.254 308.018 368.694C308.471 369.122 308.697 369.696 308.695 370.416C308.694 371.322 308.372 372.035 307.731 372.554C307.091 373.059 306.223 373.311 305.13 373.309C303.93 373.307 302.93 373.105 302.131 372.704L302.135 370.844C303.067 371.419 304.033 371.707 305.033 371.709C305.553 371.71 305.953 371.604 306.234 371.391C306.527 371.178 306.674 370.899 306.675 370.552C306.676 370.259 306.563 369.998 306.337 369.771C306.11 369.531 305.877 369.357 305.637 369.25C305.411 369.13 305.018 368.949 304.458 368.708C302.873 368.052 302.081 367.09 302.084 365.824C302.085 364.93 302.42 364.231 303.087 363.725C303.755 363.22 304.589 362.968 305.589 362.97C306.682 362.972 307.535 363.12 308.148 363.415ZM309.205 375.257L316.495 359.09L318.515 359.093L311.225 375.26L309.205 375.257ZM319.047 373.234L320.112 359.756L322.552 359.761L324.343 364.684C324.661 365.524 324.98 366.418 325.298 367.365C325.616 368.299 325.855 369.026 326.014 369.547L326.272 370.327C326.889 368.515 327.566 366.636 328.303 364.691L330.192 359.774L332.632 359.779L333.847 373.261L331.807 373.257L331.337 367.976L330.926 362.576C330.323 364.268 329.667 366.067 328.957 367.972L327.068 372.989L325.448 372.986L323.637 367.963L321.826 362.639C321.825 363.226 321.715 364.999 321.497 367.959L321.087 373.238L319.047 373.234ZM341.859 368.755L340.339 368.753C339.592 368.751 339.025 368.897 338.638 369.19C338.264 369.482 338.077 369.855 338.076 370.309C338.075 370.775 338.221 371.142 338.514 371.409C338.807 371.677 339.233 371.811 339.793 371.812C340.433 371.813 340.933 371.64 341.294 371.294C341.668 370.935 341.855 370.469 341.857 369.895L341.859 368.755ZM336.764 365.546L336.768 363.646C337.555 363.194 338.596 362.969 339.889 362.972C342.542 362.977 343.867 364.266 343.862 366.839L343.85 373.279L341.91 373.275L341.913 372.075C341.391 372.928 340.477 373.353 339.17 373.35C338.21 373.349 337.437 373.074 336.852 372.526C336.279 371.965 335.994 371.258 335.996 370.405C335.997 369.431 336.365 368.679 337.1 368.147C337.834 367.601 338.861 367.33 340.181 367.332L341.861 367.335L341.862 366.755C341.863 366.062 341.698 365.542 341.365 365.194C341.032 364.834 340.479 364.653 339.706 364.651C338.626 364.649 337.645 364.948 336.764 365.546ZM348.469 363.147L348.466 364.927C348.962 363.675 349.849 363.05 351.129 363.052C351.316 363.052 351.523 363.073 351.749 363.113L351.746 365.033C351.466 364.913 351.153 364.852 350.806 364.851C350.126 364.85 349.566 365.149 349.125 365.748C348.683 366.348 348.462 367.061 348.461 367.887L348.451 373.287L346.491 373.284L346.509 363.144L348.469 363.147ZM353.268 373.296L353.294 359.296L355.254 359.299L355.228 373.299L353.268 373.296ZM357.578 368.004L361.548 373.311L359.208 373.307L355.318 368L359.147 363.166L361.447 363.171L357.578 368.004ZM369.579 367.525L369.579 367.165C369.554 366.405 369.348 365.805 368.963 365.364C368.577 364.91 368.024 364.682 367.304 364.681C366.637 364.68 366.063 364.926 365.582 365.418C365.102 365.897 364.8 366.597 364.679 367.516L369.579 367.525ZM370.832 371.028L370.829 372.788C370.082 373.213 369.095 373.424 367.868 373.422C366.295 373.419 365.042 372.944 364.111 371.995C363.179 371.047 362.715 369.806 362.717 368.273C362.72 366.646 363.149 365.374 364.004 364.455C364.859 363.523 365.947 363.059 367.267 363.061C368.56 363.063 369.586 363.472 370.345 364.287C371.103 365.088 371.481 366.249 371.478 367.769C371.477 368.182 371.437 368.615 371.356 369.068L364.696 369.056C364.828 369.937 365.2 370.611 365.812 371.078C366.425 371.546 367.198 371.781 368.131 371.783C369.211 371.785 370.111 371.533 370.832 371.028ZM376.332 364.717L376.321 370.297C376.32 371.271 376.785 371.758 377.719 371.76C378.265 371.761 378.726 371.615 379.1 371.322L379.096 373.082C378.656 373.322 378.116 373.441 377.476 373.44C375.382 373.436 374.338 372.374 374.342 370.254L374.352 364.714L372.772 364.711L372.774 363.191L374.354 363.194L374.359 360.714L376.339 360.717L376.334 363.197L378.994 363.202L378.992 364.722L376.332 364.717ZM387.054 363.557L387.051 365.337C386.398 364.949 385.559 364.754 384.532 364.752C384.065 364.751 383.692 364.857 383.411 365.07C383.144 365.283 383.011 365.563 383.01 365.909C383.01 366.003 383.016 366.096 383.029 366.189C383.056 366.27 383.096 366.356 383.149 366.45C383.202 366.53 383.249 366.603 383.289 366.67C383.342 366.723 383.422 366.784 383.528 366.85C383.635 366.917 383.715 366.977 383.768 367.031C383.834 367.071 383.934 367.124 384.068 367.191C384.214 367.258 384.321 367.312 384.387 367.352C384.454 367.379 384.567 367.432 384.727 367.513C384.9 367.58 385.02 367.626 385.087 367.653C385.873 368.001 386.485 368.396 386.925 368.837C387.377 369.264 387.603 369.838 387.601 370.558C387.6 371.464 387.279 372.177 386.638 372.696C385.997 373.202 385.13 373.453 384.036 373.451C382.836 373.449 381.837 373.247 381.037 372.846L381.041 370.986C381.973 371.561 382.939 371.849 383.939 371.851C384.459 371.852 384.859 371.746 385.14 371.533C385.433 371.321 385.581 371.041 385.581 370.694C385.582 370.401 385.469 370.141 385.243 369.913C385.016 369.673 384.783 369.499 384.544 369.392C384.317 369.272 383.924 369.091 383.365 368.85C381.779 368.194 380.988 367.232 380.99 365.966C380.991 365.072 381.326 364.373 381.994 363.868C382.661 363.362 383.495 363.11 384.495 363.112C385.588 363.114 386.441 363.262 387.054 363.557Z" fill="white"/>
<path d="M128.05 215.29L122.47 215.28L122.461 219.7L127.361 219.709L127.358 221.429L122.458 221.42L122.447 227.04L120.387 227.037L120.413 213.557L128.053 213.57L128.05 215.29ZM136.509 216.924L138.469 216.928L138.45 227.068L136.49 227.064L136.493 225.324C135.958 226.563 134.903 227.181 133.33 227.179C132.33 227.177 131.537 226.882 130.951 226.295C130.366 225.694 130.074 224.873 130.076 223.833L130.089 216.913L132.069 216.917L132.057 223.357C132.056 224.05 132.221 224.584 132.554 224.957C132.9 225.318 133.373 225.499 133.973 225.5C134.733 225.501 135.34 225.236 135.794 224.703C136.262 224.17 136.497 223.418 136.499 222.444L136.509 216.924ZM143.185 216.936L143.182 218.676C143.784 217.423 144.838 216.798 146.345 216.801C147.345 216.803 148.138 217.111 148.723 217.725C149.309 218.339 149.601 219.173 149.599 220.227L149.586 227.087L147.626 227.083L147.638 220.683C147.639 219.977 147.46 219.436 147.101 219.062C146.755 218.688 146.289 218.501 145.702 218.5C145.009 218.499 144.415 218.771 143.92 219.317C143.426 219.849 143.178 220.602 143.176 221.576L143.166 227.076L141.206 227.072L141.225 216.932L143.185 216.936ZM156.324 225.518C157.097 225.519 157.751 225.227 158.286 224.642C158.82 224.056 159.089 223.163 159.091 221.963C159.093 220.803 158.815 219.942 158.256 219.381C157.71 218.821 157.091 218.539 156.397 218.538C155.611 218.537 154.964 218.849 154.456 219.475C153.948 220.087 153.693 220.967 153.691 222.114C153.689 223.127 153.934 223.947 154.426 224.575C154.931 225.202 155.564 225.517 156.324 225.518ZM159.108 212.963L161.088 212.966L161.061 227.106L159.081 227.103L159.084 225.563C158.375 226.682 157.341 227.24 155.981 227.238C154.648 227.235 153.595 226.733 152.824 225.732C152.052 224.718 151.668 223.497 151.671 222.07C151.674 220.484 152.083 219.211 152.898 218.252C153.713 217.294 154.761 216.815 156.041 216.818C157.361 216.82 158.38 217.382 159.098 218.503L159.108 212.963ZM170.134 221.322L170.134 220.962C170.109 220.202 169.904 219.601 169.518 219.161C169.132 218.707 168.579 218.479 167.859 218.478C167.193 218.477 166.619 218.722 166.138 219.215C165.657 219.694 165.356 220.394 165.234 221.313L170.134 221.322ZM171.387 224.824L171.384 226.584C170.636 227.009 169.649 227.221 168.423 227.219C166.849 227.216 165.597 226.741 164.665 225.792C163.734 224.844 163.269 223.603 163.272 222.07C163.275 220.443 163.705 219.171 164.56 218.252C165.415 217.32 166.502 216.856 167.822 216.858C169.116 216.86 170.141 217.268 170.9 218.083C171.658 218.884 172.036 220.045 172.033 221.565C172.033 221.978 171.992 222.412 171.911 222.865L165.251 222.853C165.382 223.734 165.755 224.408 166.367 224.875C166.979 225.343 167.752 225.578 168.686 225.579C169.766 225.581 170.666 225.329 171.387 224.824ZM176.31 216.992L176.306 218.772C176.802 217.52 177.69 216.895 178.97 216.897C179.157 216.897 179.363 216.918 179.59 216.958L179.586 218.878C179.306 218.758 178.993 218.697 178.647 218.696C177.967 218.695 177.406 218.994 176.965 219.594C176.524 220.193 176.302 220.906 176.301 221.732L176.29 227.132L174.33 227.129L174.35 216.989L176.31 216.992ZM186.907 217.351L186.903 219.131C186.251 218.743 185.411 218.548 184.384 218.546C183.918 218.545 183.544 218.651 183.264 218.864C182.997 219.077 182.863 219.357 182.862 219.704C182.862 219.797 182.868 219.89 182.881 219.984C182.908 220.064 182.948 220.15 183.001 220.244C183.054 220.324 183.101 220.397 183.141 220.464C183.194 220.518 183.274 220.578 183.38 220.644C183.487 220.711 183.567 220.771 183.62 220.825C183.686 220.865 183.786 220.919 183.92 220.985C184.066 221.052 184.173 221.106 184.239 221.146C184.306 221.173 184.419 221.226 184.579 221.307C184.752 221.374 184.872 221.42 184.939 221.447C185.725 221.795 186.337 222.19 186.776 222.63C187.229 223.058 187.455 223.631 187.453 224.351C187.451 225.258 187.13 225.971 186.489 226.49C185.848 226.995 184.981 227.247 183.888 227.245C182.688 227.243 181.688 227.042 180.889 226.64L180.892 224.78C181.825 225.355 182.791 225.643 183.791 225.645C184.311 225.646 184.711 225.54 184.991 225.327C185.285 225.114 185.432 224.835 185.433 224.488C185.433 224.195 185.321 223.934 185.094 223.707C184.868 223.467 184.635 223.293 184.395 223.186C184.169 223.066 183.776 222.885 183.216 222.644C181.631 221.988 180.839 221.027 180.842 219.76C180.844 218.867 181.178 218.167 181.846 217.662C182.514 217.156 183.347 216.904 184.347 216.906C185.441 216.908 186.294 217.056 186.907 217.351Z" fill="white"/>
<path d="M298.086 75.3501L298.074 81.8101L298.054 81.81L298.074 81.9501C296.912 82.788 295.458 83.2054 293.711 83.2023C291.605 83.1985 289.906 82.5755 288.615 81.3332C287.337 80.0909 286.7 78.4031 286.704 76.2698C286.708 74.2031 287.358 72.5309 288.653 71.2532C289.962 69.9622 291.617 69.3185 293.617 69.3221C295.177 69.3249 296.483 69.6272 297.535 70.2291L297.531 72.3491C296.386 71.627 295.107 71.2648 293.693 71.2622C292.253 71.2597 291.086 71.7176 290.191 72.636C289.309 73.5544 288.867 74.767 288.864 76.2736C288.861 77.8203 289.292 79.0411 290.157 79.9359C291.036 80.8308 292.242 81.2797 293.775 81.2824C294.575 81.2838 295.335 81.1385 296.056 80.8465L296.062 77.1265L293.322 77.1216L293.326 75.3416L298.086 75.3501ZM305.005 83.2424C303.511 83.2398 302.339 82.751 301.487 81.7762C300.636 80.8013 300.211 79.5672 300.214 78.0739C300.217 76.5539 300.659 75.2947 301.541 74.2962C302.423 73.2845 303.584 72.7799 305.024 72.7825C306.57 72.7852 307.763 73.2807 308.601 74.2688C309.439 75.2437 309.857 76.4911 309.854 78.0111C309.851 79.5311 309.416 80.7836 308.547 81.7688C307.692 82.7539 306.511 83.2451 305.005 83.2424ZM305.001 74.4424C304.134 74.4409 303.46 74.7863 302.979 75.4788C302.498 76.158 302.256 77.0042 302.254 78.0175C302.252 79.0175 302.497 79.8646 302.989 80.5588C303.482 81.2397 304.154 81.5809 305.008 81.5824C305.914 81.5841 306.602 81.252 307.069 80.5861C307.551 79.9203 307.792 79.0741 307.794 78.0474C307.796 76.9941 307.571 76.1337 307.119 75.4662C306.667 74.7854 305.961 74.4441 305.001 74.4424ZM314.654 83.0797L311.073 72.9333L313.132 72.9369L314.505 77.2194C314.823 78.2066 315.088 79.0604 315.3 79.7808C315.525 80.5012 315.664 80.9748 315.717 81.2016L315.797 81.5417C315.918 80.8886 316.361 79.4494 317.125 77.2241L318.552 72.9466L320.592 72.9502L316.894 83.0837L314.654 83.0797ZM328.638 77.3046L328.639 76.9446C328.613 76.1846 328.408 75.5842 328.022 75.1435C327.636 74.6895 327.083 74.4618 326.363 74.4606C325.697 74.4594 325.123 74.705 324.642 75.1975C324.161 75.6766 323.86 76.3761 323.738 77.2959L328.638 77.3046ZM329.892 80.8069L329.888 82.5669C329.141 82.9922 328.154 83.2038 326.927 83.2016C325.354 83.1988 324.101 82.7232 323.17 81.7749C322.238 80.8265 321.774 79.5857 321.777 78.0524C321.78 76.4257 322.209 75.1531 323.064 74.2347C323.919 73.3029 325.006 72.8381 326.326 72.8405C327.619 72.8428 328.645 73.2513 329.404 74.066C330.162 74.8673 330.54 76.028 330.538 77.548C330.537 77.9613 330.496 78.3946 330.415 78.8478L323.755 78.8359C323.887 79.7161 324.259 80.3901 324.871 80.8579C325.484 81.3257 326.257 81.5604 327.19 81.562C328.27 81.564 329.171 81.3122 329.892 80.8069ZM334.814 72.9756L334.81 74.7556C335.306 73.5032 336.194 72.8781 337.474 72.8804C337.661 72.8807 337.867 72.9011 338.094 72.9415L338.09 74.8615C337.81 74.741 337.497 74.6804 337.151 74.6798C336.471 74.6786 335.91 74.9776 335.469 75.5768C335.028 76.176 334.807 76.889 334.805 77.7156L334.795 83.1156L332.835 83.1121L332.854 72.9721L334.814 72.9756ZM341.591 72.9877L341.588 74.7277C342.19 73.4755 343.245 72.8507 344.751 72.8534C345.751 72.8552 346.544 73.1632 347.13 73.7776C347.715 74.392 348.007 75.2259 348.005 76.2792L347.992 83.1392L346.032 83.1357L346.044 76.7357C346.045 76.029 345.866 75.4887 345.507 75.1147C345.161 74.7408 344.695 74.5533 344.108 74.5522C343.415 74.551 342.821 74.8233 342.327 75.369C341.832 75.9015 341.584 76.6544 341.583 77.6277L341.572 83.1277L339.612 83.1242L339.631 72.9842L341.591 72.9877ZM352.607 73.0074L352.604 74.6274C353.179 73.4551 354.134 72.8701 355.467 72.8725C356.987 72.8752 357.959 73.5303 358.383 74.8377C358.664 74.2115 359.072 73.7323 359.606 73.3999C360.14 73.0542 360.74 72.8819 361.407 72.8831C362.447 72.885 363.233 73.193 363.765 73.8073C364.311 74.4216 364.583 75.2688 364.581 76.3488L364.568 83.1688L362.608 83.1653L362.62 76.7653C362.622 75.3119 362.037 74.5842 360.864 74.5821C360.277 74.5811 359.75 74.8401 359.282 75.3593C358.828 75.8785 358.6 76.6448 358.598 77.6581L358.588 83.1581L356.628 83.1546L356.64 76.7546C356.642 75.3013 356.05 74.5735 354.864 74.5714C354.29 74.5704 353.77 74.8295 353.302 75.3486C352.835 75.8678 352.6 76.6341 352.598 77.6474L352.588 83.1474L350.628 83.1439L350.647 73.0039L352.607 73.0074ZM373.54 77.3848L373.541 77.0248C373.516 76.2647 373.31 75.6643 372.924 75.2237C372.538 74.7696 371.985 74.542 371.265 74.5407C370.599 74.5395 370.025 74.7852 369.544 75.2776C369.063 75.7568 368.762 76.4562 368.64 77.376L373.54 77.3848ZM374.794 80.887L374.791 82.647C374.043 83.0723 373.056 83.2839 371.829 83.2817C370.256 83.2789 369.004 82.8033 368.072 81.855C367.14 80.9067 366.676 79.6658 366.679 78.1325C366.682 76.5059 367.111 75.2333 367.966 74.3148C368.821 73.383 369.908 72.9183 371.228 72.9206C372.522 72.9229 373.548 73.3314 374.306 74.1461C375.065 74.9475 375.443 76.1082 375.44 77.6282C375.439 78.0415 375.398 78.4747 375.317 78.9279L368.657 78.9161C368.789 79.7963 369.161 80.4703 369.774 80.938C370.386 81.4058 371.159 81.6405 372.092 81.6422C373.172 81.6441 374.073 81.3924 374.794 80.887ZM379.716 73.0558L379.713 74.7958C380.315 73.5435 381.37 72.9187 382.876 72.9214C383.876 72.9232 384.669 73.2313 385.255 73.8457C385.84 74.46 386.132 75.2939 386.13 76.3472L386.117 83.2072L384.157 83.2037L384.169 76.8037C384.17 76.0971 383.991 75.5567 383.632 75.1828C383.286 74.8088 382.82 74.6213 382.233 74.6203C381.54 74.619 380.946 74.8913 380.452 75.4371C379.957 75.9695 379.709 76.7224 379.707 77.6958L379.697 83.1958L377.737 83.1923L377.756 73.0523L379.716 73.0558ZM391.309 74.5965L391.299 80.1765C391.297 81.1498 391.763 81.6373 392.696 81.639C393.243 81.6399 393.703 81.4941 394.077 81.2014L394.074 82.9614C393.633 83.2006 393.093 83.3197 392.453 83.3185C390.36 83.3148 389.315 82.2529 389.319 80.1329L389.329 74.5929L387.749 74.5901L387.752 73.0701L389.332 73.0729L389.336 70.5929L391.316 70.5965L391.312 73.0765L393.972 73.0812L393.969 74.6012L391.309 74.5965Z" fill="white"/>
<ellipse cx="262.73" cy="318.785" rx="28.7299" ry="28.7848" stroke="white" stroke-width="2"/>
<path d="M246.999 335.568C246.899 335.568 246.818 335.487 246.818 335.386C246.818 335.286 246.899 335.205 246.999 335.205H249.605V316.88V313.78C249.605 313.517 249.712 313.277 249.886 313.103C250.059 312.929 250.298 312.821 250.562 312.821H251.03C251.094 312.331 251.439 311.852 251.96 311.494C252.134 311.374 252.328 311.268 252.537 311.179C252.537 311.173 252.537 311.168 252.537 311.162C252.537 310.851 252.708 310.574 252.987 310.376C253.206 310.221 253.492 310.116 253.81 310.086V308.397C253.81 308.297 253.891 308.216 253.991 308.216C254.091 308.216 254.172 308.297 254.172 308.397V310.086C254.489 310.116 254.776 310.221 254.995 310.376C255.273 310.573 255.445 310.851 255.445 311.162C255.445 311.168 255.445 311.173 255.444 311.179C255.654 311.268 255.848 311.374 256.021 311.494C256.543 311.852 256.887 312.331 256.951 312.821H258.015V311.432C258.015 311.275 258.079 311.132 258.182 311.029C258.285 310.926 258.427 310.861 258.584 310.861H259.417V308.783C259.417 308.626 259.481 308.483 259.584 308.38C259.687 308.277 259.829 308.212 259.986 308.212H260.725V306.478C260.725 306.321 260.789 306.179 260.892 306.075C260.995 305.972 261.138 305.908 261.294 305.908H262.22V302.18C262.22 301.942 262.582 301.942 262.582 302.18V305.908H263.508C263.665 305.908 263.807 305.972 263.91 306.075C264.013 306.179 264.077 306.321 264.077 306.478V308.212H264.817C264.973 308.212 265.116 308.276 265.219 308.38C265.322 308.483 265.386 308.626 265.386 308.783V310.861H266.219C266.375 310.861 266.517 310.925 266.621 311.029C266.724 311.132 266.788 311.275 266.788 311.432V312.826H268.347C268.401 312.338 268.699 311.86 269.149 311.501C269.259 311.414 269.348 311.351 269.474 311.279C269.461 310.912 269.629 310.584 269.922 310.376C270.141 310.221 270.428 310.115 270.745 310.086V308.397C270.745 308.297 270.826 308.216 270.926 308.216C271.026 308.216 271.107 308.297 271.107 308.397V310.086C271.425 310.115 271.712 310.221 271.931 310.376C272.209 310.573 272.381 310.851 272.381 311.162C272.381 311.199 272.369 311.234 272.35 311.263C272.476 311.334 272.594 311.414 272.703 311.501C273.154 311.86 273.452 312.339 273.506 312.826H274.241C274.504 312.826 274.744 312.933 274.917 313.107C275.09 313.281 275.198 313.52 275.198 313.784V335.206H278.461C278.561 335.206 278.642 335.287 278.642 335.387C278.642 335.487 278.561 335.568 278.461 335.568H247.001L246.999 335.568ZM252.982 335.205C254.644 335.205 258.015 335.205 258.015 333.335V332.769C257.252 333.8 255.404 333.882 253.638 333.96C251.846 334.039 250.146 334.114 249.98 335.205L252.982 335.205ZM258.015 334.39C257.703 334.772 257.215 335.031 256.649 335.205H258.015V334.39ZM265.096 314.723C265.096 314.663 265.144 314.614 265.204 314.614C265.264 314.614 265.313 314.663 265.313 314.723V328.023C265.313 328.083 265.264 328.132 265.204 328.132C265.144 328.132 265.096 328.083 265.096 328.023V314.723ZM269.836 311.099C270.167 310.965 270.536 310.887 270.924 310.887C271.313 310.887 271.682 310.965 272.012 311.099C271.991 310.936 271.883 310.785 271.721 310.67C271.52 310.528 271.239 310.44 270.924 310.44C270.61 310.44 270.329 310.528 270.128 310.67C269.966 310.785 269.858 310.936 269.836 311.099ZM252.914 311.043C253.248 310.943 253.611 310.886 253.991 310.886C254.371 310.886 254.734 310.943 255.068 311.043C255.032 310.901 254.931 310.772 254.787 310.67C254.587 310.527 254.305 310.439 253.991 310.439C253.677 310.439 253.395 310.527 253.195 310.67C253.051 310.772 252.95 310.901 252.914 311.043H252.914ZM268.709 312.825H273.139C273.084 312.448 272.84 312.073 272.476 311.783C272.074 311.463 271.527 311.249 270.924 311.249C270.321 311.249 269.775 311.463 269.372 311.783C269.008 312.073 268.764 312.448 268.709 312.825H268.709ZM249.967 314.133C250.625 313.449 252.093 313.384 253.622 313.317C254.265 313.288 254.92 313.26 255.521 313.183H250.562C250.398 313.183 250.25 313.25 250.142 313.358C250.034 313.466 249.967 313.615 249.967 313.779L249.967 314.133ZM257.052 313.183C257.05 313.184 257.047 313.185 257.044 313.187C256.13 313.568 254.863 313.624 253.637 313.678C251.751 313.761 249.967 313.84 249.967 315.104V315.907C250.625 315.223 252.093 315.158 253.622 315.091C255.698 314.999 257.896 314.902 258.009 313.183H257.052L257.052 313.183ZM258.014 314.261C257.252 315.292 255.403 315.374 253.637 315.452C251.751 315.535 249.967 315.614 249.967 316.878V317.589C250.625 316.906 252.093 316.841 253.622 316.773C255.753 316.679 258.014 316.58 258.014 314.724V314.262L258.014 314.261ZM258.014 315.944C257.252 316.975 255.403 317.056 253.637 317.134C251.751 317.217 249.967 317.296 249.967 318.561V319.272C250.625 318.588 252.093 318.523 253.622 318.456C255.753 318.362 258.014 318.262 258.014 316.407V315.944L258.014 315.944ZM258.014 317.626C257.252 318.657 255.403 318.739 253.637 318.817C251.751 318.9 249.967 318.978 249.967 320.243V320.954C250.625 320.27 252.093 320.205 253.622 320.138C255.753 320.044 258.014 319.944 258.014 318.089V317.626L258.014 317.626ZM258.014 319.309C257.252 320.339 255.403 320.421 253.637 320.499C251.751 320.582 249.967 320.661 249.967 321.926V322.637C250.625 321.953 252.093 321.888 253.622 321.821C255.753 321.726 258.014 321.627 258.014 319.771V319.309L258.014 319.309ZM258.014 320.991C257.252 322.022 255.403 322.103 253.637 322.181C251.751 322.265 249.967 322.343 249.967 323.608V324.319C250.625 323.635 252.093 323.57 253.622 323.503C255.753 323.409 258.014 323.309 258.014 321.454V320.991L258.014 320.991ZM258.014 322.673C257.252 323.704 255.403 323.786 253.637 323.864C251.751 323.947 249.967 324.026 249.967 325.291V326.001C250.625 325.318 252.093 325.253 253.622 325.185C255.753 325.091 258.014 324.992 258.014 323.136V322.674L258.014 322.673ZM258.014 324.356C257.252 325.387 255.403 325.468 253.637 325.546C251.751 325.629 249.967 325.708 249.967 326.973V327.684C250.625 327 252.093 326.935 253.622 326.868C255.753 326.774 258.014 326.674 258.014 324.819V324.356L258.014 324.356ZM258.014 326.038C257.252 327.069 255.403 327.151 253.637 327.229C251.751 327.312 249.967 327.39 249.967 328.655V329.366C250.625 328.682 252.093 328.617 253.622 328.55C255.753 328.456 258.014 328.356 258.014 326.501V326.039L258.014 326.038ZM258.014 327.721C257.252 328.751 255.403 328.833 253.637 328.911C251.751 328.994 249.967 329.073 249.967 330.338V331.049C250.625 330.365 252.093 330.3 253.622 330.233C255.753 330.138 258.014 330.039 258.014 328.183V327.721L258.014 327.721ZM258.014 329.403C257.252 330.434 255.403 330.516 253.637 330.593C251.751 330.677 249.967 330.755 249.967 332.02V332.731C250.625 332.047 252.093 331.982 253.622 331.915C255.753 331.821 258.014 331.721 258.014 329.866V329.403L258.014 329.403ZM258.014 331.085C257.252 332.116 255.403 332.198 253.637 332.276C251.751 332.359 249.967 332.438 249.967 333.703V334.413C250.625 333.73 252.093 333.665 253.622 333.597C255.753 333.503 258.014 333.404 258.014 331.548V331.086L258.014 331.085ZM262.415 312.222C262.457 312.18 262.526 312.18 262.568 312.223C262.61 312.265 262.61 312.334 262.567 312.376L259.461 315.468C259.419 315.511 259.35 315.51 259.308 315.468C259.266 315.425 259.266 315.357 259.309 315.315L262.415 312.222ZM260.971 312.271C261.013 312.228 261.082 312.228 261.124 312.271C261.167 312.313 261.167 312.382 261.124 312.425L259.523 314.029C259.48 314.072 259.412 314.072 259.369 314.029C259.327 313.987 259.327 313.918 259.369 313.876L260.971 312.271ZM262.307 334.31C262.265 334.353 262.197 334.352 262.154 334.31C262.112 334.267 262.112 334.199 262.155 334.157L265.261 331.064C265.304 331.022 265.372 331.022 265.414 331.065C265.456 331.107 265.456 331.176 265.414 331.218L262.307 334.31ZM263.751 334.262C263.709 334.304 263.64 334.304 263.598 334.262C263.555 334.219 263.555 334.15 263.598 334.108L265.2 332.503C265.242 332.461 265.311 332.461 265.353 332.503C265.395 332.545 265.395 332.614 265.353 332.657L263.751 334.262ZM268.452 333.648C268.352 333.648 268.271 333.567 268.271 333.466C268.271 333.366 268.352 333.285 268.452 333.285H273.363C273.463 333.285 273.544 333.366 273.544 333.466C273.544 333.567 273.463 333.648 273.363 333.648H268.452ZM268.452 331.788C268.352 331.788 268.271 331.706 268.271 331.606C268.271 331.506 268.352 331.425 268.452 331.425H273.363C273.463 331.425 273.544 331.506 273.544 331.606C273.544 331.706 273.463 331.788 273.363 331.788H268.452ZM268.452 329.927C268.352 329.927 268.271 329.846 268.271 329.746C268.271 329.646 268.352 329.565 268.452 329.565H273.363C273.463 329.565 273.544 329.646 273.544 329.746C273.544 329.846 273.463 329.927 273.363 329.927H268.452ZM268.452 328.067C268.352 328.067 268.271 327.986 268.271 327.886C268.271 327.786 268.352 327.705 268.452 327.705H273.363C273.463 327.705 273.544 327.786 273.544 327.886C273.544 327.986 273.463 328.067 273.363 328.067H268.452ZM268.452 326.207C268.352 326.207 268.271 326.126 268.271 326.026C268.271 325.926 268.352 325.844 268.452 325.844H273.363C273.463 325.844 273.544 325.926 273.544 326.026C273.544 326.126 273.463 326.207 273.363 326.207H268.452ZM268.452 324.347C268.352 324.347 268.271 324.266 268.271 324.166C268.271 324.065 268.352 323.984 268.452 323.984H273.363C273.463 323.984 273.544 324.065 273.544 324.166C273.544 324.266 273.463 324.347 273.363 324.347H268.452ZM268.452 322.487C268.352 322.487 268.271 322.406 268.271 322.305C268.271 322.205 268.352 322.124 268.452 322.124H273.363C273.463 322.124 273.544 322.205 273.544 322.305C273.544 322.406 273.463 322.487 273.363 322.487H268.452ZM268.452 320.627C268.352 320.627 268.271 320.545 268.271 320.445C268.271 320.345 268.352 320.264 268.452 320.264H273.363C273.463 320.264 273.544 320.345 273.544 320.445C273.544 320.545 273.463 320.627 273.363 320.627H268.452ZM268.452 318.766C268.352 318.766 268.271 318.685 268.271 318.585C268.271 318.485 268.352 318.404 268.452 318.404H273.363C273.463 318.404 273.544 318.485 273.544 318.585C273.544 318.685 273.463 318.766 273.363 318.766H268.452ZM268.452 316.906C268.352 316.906 268.271 316.825 268.271 316.725C268.271 316.625 268.352 316.544 268.452 316.544H273.363C273.463 316.544 273.544 316.625 273.544 316.725C273.544 316.825 273.463 316.906 273.363 316.906H268.452ZM268.452 315.046C268.352 315.046 268.271 314.965 268.271 314.865C268.271 314.765 268.352 314.683 268.452 314.683H273.363C273.463 314.683 273.544 314.765 273.544 314.865C273.544 314.965 273.463 315.046 273.363 315.046H268.452ZM251.396 312.819H256.585C256.519 312.448 256.237 312.078 255.818 311.79C255.344 311.465 254.701 311.248 253.991 311.248C253.28 311.248 252.637 311.465 252.164 311.79C251.744 312.078 251.462 312.448 251.396 312.819H251.396ZM266.786 313.186V335.204H274.834V313.783C274.834 313.619 274.767 313.47 274.659 313.362C274.551 313.253 274.402 313.186 274.239 313.186H266.786L266.786 313.186ZM261.086 308.21H263.715V306.476C263.715 306.419 263.691 306.367 263.653 306.33C263.616 306.292 263.564 306.268 263.507 306.268H261.293C261.236 306.268 261.185 306.292 261.147 306.33C261.11 306.367 261.086 306.419 261.086 306.476V308.21H261.086ZM259.778 310.859H265.022V308.78C265.022 308.723 264.999 308.672 264.961 308.634C264.924 308.596 264.872 308.573 264.815 308.573H259.985C259.928 308.573 259.876 308.596 259.839 308.634C259.801 308.672 259.778 308.723 259.778 308.78V310.859H259.778ZM258.377 335.204H266.424V311.429C266.424 311.372 266.401 311.321 266.363 311.283C266.326 311.245 266.274 311.222 266.217 311.222H258.584C258.527 311.222 258.475 311.245 258.437 311.283C258.4 311.321 258.376 311.372 258.376 311.429V335.203L258.377 335.204Z" fill="white" stroke="white"/>
<path d="M36.3896 425.144L36.3859 427.164C35.7998 426.843 35.2669 426.622 34.7871 426.501C34.3207 426.367 33.7208 426.299 32.9875 426.298C31.6408 426.295 30.5133 426.753 29.6049 427.672C28.7099 428.577 28.261 429.783 28.2582 431.289C28.2553 432.823 28.6997 434.044 29.5913 434.952C30.483 435.86 31.6621 436.315 33.1288 436.318C34.4221 436.32 35.5094 435.989 36.3906 435.324L36.3868 437.404C35.5591 437.949 34.4119 438.22 32.9452 438.218C30.9319 438.214 29.2864 437.585 28.0088 436.329C26.7311 435.073 26.0942 433.392 26.0982 431.286C26.102 429.246 26.7451 427.587 28.0274 426.309C29.3232 425.031 30.9577 424.394 32.931 424.398C34.371 424.4 35.5239 424.649 36.3896 425.144ZM46.039 425.141L46.0352 427.181C45.1429 426.619 44.1301 426.337 42.9968 426.335C42.2635 426.334 41.6832 426.5 41.2559 426.832C40.8419 427.151 40.6345 427.578 40.6335 428.111C40.6325 428.644 40.8384 429.071 41.2511 429.392C41.6638 429.713 42.2965 430.061 43.1491 430.436C43.7087 430.677 44.1416 430.884 44.448 431.058C44.7677 431.232 45.1272 431.479 45.5266 431.8C45.9394 432.107 46.2387 432.481 46.4245 432.921C46.6237 433.348 46.7228 433.842 46.7218 434.402C46.7195 435.588 46.2978 436.521 45.4565 437.2C44.6153 437.878 43.528 438.216 42.1946 438.214C40.7146 438.211 39.4885 437.922 38.5163 437.347L38.5202 435.207C39.5721 435.996 40.7914 436.391 42.178 436.394C42.9114 436.395 43.4917 436.229 43.919 435.897C44.3463 435.551 44.5605 435.078 44.5616 434.478C44.5623 434.118 44.4362 433.791 44.1834 433.497C43.9307 433.19 43.6578 432.963 43.3647 432.816C43.0717 432.655 42.6321 432.441 42.0459 432.174C41.6995 432.013 41.4531 431.899 41.3065 431.832C41.1733 431.765 40.9469 431.645 40.6272 431.471C40.3075 431.297 40.0678 431.15 39.908 431.03C39.7616 430.91 39.5752 430.743 39.349 430.529C39.1227 430.315 38.9564 430.102 38.8502 429.888C38.7572 429.675 38.6644 429.428 38.5715 429.148C38.4921 428.854 38.4527 428.541 38.4533 428.207C38.4554 427.061 38.8705 426.155 39.6984 425.489C40.5396 424.824 41.6202 424.493 42.9402 424.495C44.1536 424.497 45.1865 424.712 46.039 425.141ZM48.6373 431.285C48.6412 429.192 49.2043 427.513 50.3267 426.248C51.449 424.983 52.9502 424.353 54.8302 424.356C56.7502 424.359 58.2623 424.995 59.3666 426.264C60.471 427.519 61.0212 429.2 61.0172 431.307C61.0133 433.414 60.4502 435.099 59.3278 436.364C58.2188 437.629 56.7176 438.259 54.8243 438.256C52.9443 438.253 51.4388 437.617 50.3078 436.348C49.1902 435.079 48.6333 433.392 48.6373 431.285ZM51.8641 427.631C51.1558 428.523 50.8001 429.742 50.7973 431.289C50.7944 432.836 51.1588 434.063 51.8904 434.971C52.622 435.879 53.6012 436.334 54.8279 436.336C56.0945 436.338 57.082 435.893 57.7903 435.001C58.4987 434.109 58.8543 432.876 58.8572 431.303C58.8602 429.743 58.5024 428.516 57.7841 427.621C57.0791 426.727 56.0933 426.278 54.8266 426.276C53.5733 426.274 52.5858 426.725 51.8641 427.631ZM69.1016 428.321L69.0983 430.101C68.4456 429.713 67.606 429.518 66.5793 429.517C66.1127 429.516 65.7391 429.622 65.4587 429.835C65.1917 430.047 65.0578 430.327 65.0572 430.674C65.057 430.767 65.0635 430.861 65.0767 430.954C65.1032 431.034 65.143 431.121 65.1962 431.214C65.2494 431.294 65.2959 431.368 65.3358 431.434C65.389 431.488 65.4689 431.548 65.5754 431.615C65.682 431.682 65.7619 431.742 65.8151 431.795C65.8817 431.835 65.9816 431.889 66.1148 431.956C66.2613 432.023 66.3679 432.076 66.4345 432.116C66.5011 432.143 66.6143 432.197 66.7742 432.277C66.9474 432.344 67.0673 432.391 67.1339 432.418C67.92 432.766 68.5326 433.16 68.9717 433.601C69.4243 434.028 69.6499 434.602 69.6485 435.322C69.6468 436.229 69.3255 436.941 68.6845 437.46C68.0436 437.966 67.1765 438.218 66.0831 438.216C64.8831 438.214 63.8835 438.012 63.0842 437.61L63.0877 435.75C64.02 436.325 64.9861 436.614 65.9861 436.616C66.5061 436.616 66.9063 436.511 67.1867 436.298C67.4804 436.085 67.6276 435.805 67.6283 435.458C67.6288 435.165 67.516 434.905 67.2897 434.678C67.0635 434.437 66.8305 434.264 66.5907 434.157C66.3642 434.036 65.9712 433.856 65.4117 433.615C63.8263 432.958 63.0347 431.997 63.0371 430.73C63.0387 429.837 63.3734 429.138 64.041 428.632C64.7086 428.127 65.5424 427.875 66.5424 427.877C67.6357 427.878 68.4888 428.027 69.1016 428.321ZM70.1584 440.163L77.4486 423.996L79.4686 423.999L72.1784 440.166L70.1584 440.163ZM80.1802 438.14L80.2053 424.66L82.6453 424.665L85.9548 430.311C86.5661 431.365 87.1177 432.339 87.6093 433.233C88.1143 434.128 88.4598 434.755 88.6458 435.115L88.9248 435.676C88.847 434.462 88.8104 432.682 88.8147 430.336L88.8253 424.676L90.8853 424.679L90.8601 438.159L88.4201 438.155L85.0906 432.529C84.4925 431.515 83.941 430.56 83.436 429.666C82.9443 428.759 82.5989 428.105 82.3996 427.704L82.1007 427.124C82.2049 428.457 82.2549 430.251 82.2507 432.504L82.2402 438.144L80.1802 438.14ZM104.628 430.483L104.616 436.943L104.596 436.943L104.616 437.083C103.454 437.921 102 438.339 100.254 438.336C98.1469 438.332 96.4481 437.709 95.1571 436.467C93.8794 435.224 93.2425 433.537 93.2465 431.403C93.2503 429.337 93.9001 427.664 95.1959 426.387C96.5049 425.096 98.1595 424.452 100.159 424.455C101.719 424.458 103.026 424.76 104.078 425.362L104.074 427.482C102.929 426.76 101.649 426.398 100.236 426.396C98.7958 426.393 97.6283 426.851 96.7333 427.769C95.8516 428.688 95.4093 429.9 95.4065 431.407C95.4036 432.954 95.8347 434.175 96.6997 435.069C97.578 435.964 98.7838 436.413 100.317 436.416C101.117 436.417 101.877 436.272 102.598 435.98L102.605 432.26L99.8649 432.255L99.8682 430.475L104.628 430.483ZM106.86 431.387C106.864 429.294 107.427 427.615 108.549 426.35C109.672 425.085 111.173 424.455 113.053 424.458C114.973 424.461 116.485 425.097 117.589 426.366C118.694 427.621 119.244 429.302 119.24 431.409C119.236 433.516 118.673 435.201 117.55 436.466C116.441 437.731 114.94 438.361 113.047 438.358C111.167 438.355 109.661 437.719 108.53 436.45C107.413 435.181 106.856 433.494 106.86 431.387ZM110.087 427.733C109.378 428.625 109.023 429.844 109.02 431.391C109.017 432.938 109.381 434.165 110.113 435.073C110.845 435.981 111.824 436.436 113.05 436.438C114.317 436.44 115.305 435.995 116.013 435.103C116.721 434.211 117.077 432.978 117.08 431.405C117.083 429.845 116.725 428.618 116.007 427.723C115.302 426.829 114.316 426.38 113.049 426.378C111.796 426.376 110.808 426.827 110.087 427.733ZM127.324 428.423L127.321 430.203C126.668 429.815 125.829 429.62 124.802 429.619C124.335 429.618 123.962 429.724 123.681 429.937C123.414 430.15 123.28 430.429 123.28 430.776C123.28 430.869 123.286 430.963 123.299 431.056C123.326 431.136 123.366 431.223 123.419 431.316C123.472 431.396 123.518 431.47 123.558 431.536C123.612 431.59 123.691 431.65 123.798 431.717C123.905 431.784 123.984 431.844 124.038 431.897C124.104 431.937 124.204 431.991 124.337 432.058C124.484 432.125 124.59 432.178 124.657 432.218C124.724 432.245 124.837 432.299 124.997 432.379C125.17 432.446 125.29 432.493 125.356 432.52C126.143 432.868 126.755 433.262 127.194 433.703C127.647 434.13 127.872 434.704 127.871 435.424C127.869 436.331 127.548 437.043 126.907 437.562C126.266 438.068 125.399 438.32 124.306 438.318C123.106 438.316 122.106 438.114 121.307 437.712L121.31 435.852C122.243 436.427 123.209 436.716 124.209 436.718C124.729 436.718 125.129 436.613 125.409 436.4C125.703 436.187 125.85 435.907 125.851 435.56C125.851 435.267 125.739 435.007 125.512 434.78C125.286 434.539 125.053 434.366 124.813 434.259C124.587 434.138 124.194 433.958 123.634 433.717C122.049 433.06 121.257 432.099 121.26 430.832C121.261 429.939 121.596 429.24 122.264 428.734C122.931 428.229 123.765 427.977 124.765 427.979C125.858 427.98 126.711 428.129 127.324 428.423Z" fill="white"/>
<ellipse cx="81.6553" cy="383.785" rx="28.6553" ry="28.7848" stroke="white" stroke-width="2"/>
<path d="M80.9779 366.884C80.6358 367.07 80.6358 367.096 80.6289 370.021V372.754L77.2965 372.774L73.9572 372.794L73.5671 372.98C73.1018 373.205 72.6776 373.643 72.5202 374.074C72.4449 374.273 72.3902 374.704 72.3696 375.261L72.3286 376.144H72.1096C71.8017 376.144 71.0969 376.502 70.8368 376.787C70.4194 377.251 70.3441 377.523 70.3099 378.664L70.2826 379.692L68.7634 380.316C65.8142 381.536 65.7115 381.583 65.6089 381.788C65.5199 381.947 65.5063 383.188 65.5063 390.703V399.425H65.0957C64.863 399.425 64.5962 399.465 64.4867 399.518C64.035 399.75 64.035 400.427 64.4867 400.659C64.7741 400.798 98.5367 400.798 98.8241 400.659C99.2757 400.427 99.2757 399.75 98.8241 399.518C98.7146 399.465 98.4477 399.425 98.215 399.425H97.8045V390.703C97.8045 383.188 97.7908 381.947 97.7018 381.788C97.5992 381.583 97.4897 381.536 94.5473 380.316L93.0282 379.692L93.0008 378.697C92.9597 377.556 92.8708 377.238 92.4739 376.794C92.0702 376.349 91.6664 376.183 90.8932 376.144L90.2431 376.11L90.2089 375.149C90.1815 374.293 90.1542 374.154 90.0036 373.868C89.8052 373.484 89.4151 373.126 88.984 372.933C88.6761 372.801 88.5735 372.794 85.3368 372.774L81.9975 372.754V372.091V371.434H83.8998C86.1716 371.434 86.2743 371.414 86.8628 370.844C87.3623 370.36 87.4718 370.048 87.4718 369.113C87.4718 368.642 87.4376 368.303 87.3623 368.098C87.2254 367.7 86.7875 367.229 86.3496 367.003L86.0006 366.824L83.5714 366.811C81.6348 366.798 81.1079 366.811 80.9779 366.884ZM85.939 368.337C86.0895 368.502 86.1032 368.582 86.1032 369.119C86.1032 369.696 86.0964 369.73 85.9048 369.915L85.7063 370.108H83.8519H81.9975V369.113V368.111L83.8861 368.131L85.7748 368.151L85.939 368.337ZM88.464 374.18C88.5872 374.233 88.724 374.333 88.7651 374.406C88.8061 374.485 88.8403 374.897 88.8403 375.341V376.144L81.2995 376.13L73.7519 376.11L73.7313 375.474C73.7108 374.664 73.7998 374.359 74.1282 374.207C74.354 374.094 74.8399 374.087 81.2995 374.087C87.1228 374.087 88.2655 374.101 88.464 374.18ZM91.338 377.576C91.4269 377.629 91.5296 377.769 91.5706 377.881C91.6185 378.021 91.6459 379.5 91.6459 382.418V386.756H81.6554H71.6648V382.418C71.6648 379.546 71.6922 378.014 71.7401 377.888C71.7743 377.788 71.8769 377.649 71.9591 377.59C72.1028 377.483 72.7186 377.47 81.6417 377.47C90.1747 377.47 91.1874 377.483 91.338 377.576ZM70.2962 390.272V399.425H68.5855H66.8748V390.981V382.544L68.5718 381.835C69.5025 381.45 70.2689 381.125 70.2826 381.125C70.2894 381.118 70.2962 385.237 70.2962 390.272ZM95.2931 382.067L96.4359 382.538V390.981V399.425H94.7252H93.0145V390.272V381.125L93.5824 381.357C93.8904 381.49 94.6568 381.808 95.2931 382.067ZM91.6459 388.746V389.409H81.6554H71.6648V388.746V388.083H81.6554H91.6459V388.746ZM91.6117 391.432V392.096H81.6554H71.699L71.6785 391.505C71.6648 391.18 71.6717 390.875 71.6922 390.822C71.7264 390.749 73.4371 390.736 81.669 390.749L91.6117 390.769V391.432ZM77.8918 396.44V399.425H74.7783H71.6648V396.44V393.455H74.7783H77.8918V396.44ZM84.0504 396.44V399.425H81.6554H79.2604V396.44V393.455H81.6554H84.0504V396.44ZM91.6459 396.44V399.425H88.5324H85.4189V396.44V393.455H88.5324H91.6459V396.44Z" fill="white"/>
<path d="M73.3005 379.652L73.1021 379.845V382.1C73.1021 384.269 73.1089 384.355 73.2389 384.521C73.4031 384.726 73.7932 384.819 74.0258 384.713C74.3611 384.561 74.4364 384.348 74.4706 383.347L74.5048 382.412L75.1823 383.426C75.5518 383.984 75.935 384.494 76.0239 384.567C76.2361 384.726 76.6398 384.74 76.8588 384.594C77.1804 384.368 77.2078 384.189 77.2078 382.04C77.2078 380.375 77.1872 380.01 77.1051 379.825C76.9135 379.44 76.4003 379.341 76.065 379.619L75.8734 379.778L75.8392 380.859L75.805 381.947L75.0386 380.806C74.6212 380.183 74.2037 379.626 74.1216 379.566C73.8684 379.394 73.5331 379.433 73.3005 379.652Z" fill="white"/>
<path d="M80.4923 379.52C79.2469 379.918 78.5079 380.986 78.5968 382.292C78.6584 383.287 79.199 384.103 80.0749 384.521C80.4718 384.707 80.5881 384.733 81.0739 384.733C81.7103 384.733 82.0867 384.594 82.5451 384.196C83.1678 383.652 83.5647 382.345 83.2705 381.788C83.1268 381.523 82.8873 381.45 82.1277 381.45C81.3682 381.45 81.115 381.529 80.985 381.815C80.7592 382.286 81.1013 382.776 81.6487 382.776C81.9156 382.776 81.9224 382.896 81.6693 383.161C80.8481 384.017 79.548 382.703 80.0475 381.529C80.3486 380.84 80.9987 380.607 81.6693 380.952C82.0798 381.165 82.2783 381.165 82.5383 380.946C83.0036 380.568 82.8599 380.07 82.1756 379.712C81.8198 379.533 81.6761 379.5 81.2108 379.48C80.9097 379.473 80.5881 379.487 80.4923 379.52Z" fill="white"/>
<path d="M86.6233 379.593C85.8296 379.865 85.2342 380.422 84.9332 381.165C84.721 381.689 84.721 382.524 84.9263 383.042C85.6311 384.793 87.9098 385.323 89.3194 384.057C89.5931 383.811 89.7984 383.546 89.949 383.254C90.1611 382.843 90.1748 382.77 90.1748 382.113C90.1748 381.47 90.1611 381.384 89.9626 380.986C89.6821 380.415 89.2236 379.971 88.6488 379.705C88.0398 379.427 87.2323 379.387 86.6233 379.593ZM88.074 380.913C88.6009 381.178 88.8404 381.556 88.8404 382.12C88.8404 383.353 87.3145 383.891 86.466 382.955C86.0485 382.491 86.0143 381.914 86.3702 381.364C86.7191 380.833 87.4992 380.627 88.074 380.913Z" fill="white"/>
<ellipse cx="175.674" cy="172.785" rx="28.6737" ry="28.7848" stroke="white" stroke-width="2"/>
<path d="M168.67 155.574C166.899 155.871 165.397 156.656 164.191 157.913C163.248 158.894 162.622 159.928 162.251 161.118C161.928 162.166 161.901 162.491 161.908 165.277C161.908 167.711 161.921 167.914 162.049 168.394C162.359 169.516 162.925 170.294 163.639 170.591C163.935 170.713 163.942 170.713 163.976 171.126C164.07 172.079 164.548 173.35 165.168 174.277C165.565 174.872 166.582 175.866 167.175 176.231L167.66 176.535L167.647 177.002L167.626 177.475L167.29 177.549C166.825 177.651 166.36 177.887 165.949 178.225C165.612 178.496 165.599 178.503 164.797 178.584C163.774 178.685 163.154 178.854 162.305 179.273C160.446 180.18 159.14 181.809 158.614 183.871C158.473 184.412 158.466 184.602 158.466 186.914V189.382L158.621 189.605C158.709 189.727 158.897 189.883 159.039 189.957C159.301 190.092 159.483 190.092 171.055 190.092C179.191 190.092 182.862 190.072 182.997 190.018C183.098 189.984 183.266 189.876 183.361 189.781L183.529 189.619L183.933 189.754C184.149 189.828 184.607 189.937 184.937 189.991C188.486 190.572 191.861 188.341 192.73 184.845C192.905 184.135 192.932 182.803 192.791 181.978C192.386 179.585 191.423 177.576 189.827 175.771L189.207 175.081H189.45C189.935 175.081 190.204 174.506 189.894 174.128C189.78 173.979 189.699 173.966 189.059 173.932L188.359 173.898L188.918 172.579C189.227 171.856 189.483 171.166 189.483 171.058C189.483 170.808 189.281 170.355 189.093 170.193C188.796 169.929 188.493 169.882 187.052 169.875H185.664L185.57 169.591C185.455 169.232 185.112 168.888 184.789 168.8C184.647 168.759 184.182 168.725 183.758 168.725C183.152 168.725 182.923 168.752 182.714 168.854C182.202 169.084 181.933 169.577 182.034 170.091C182.061 170.213 182.438 171.119 182.876 172.106L183.671 173.898L182.997 173.932C182.371 173.966 182.323 173.979 182.169 174.155C181.832 174.554 182.094 175.081 182.633 175.081H182.903L182.371 175.642C181.475 176.576 180.936 177.346 180.384 178.476C180.208 178.841 180.054 179.172 180.04 179.213C180.02 179.267 179.798 179.206 179.36 179.044C178.578 178.746 178.006 178.624 177.157 178.557C176.538 178.516 176.511 178.503 176.234 178.252C175.904 177.948 175.399 177.678 174.914 177.556L174.564 177.468L174.544 176.995L174.524 176.515L175.083 176.143C175.723 175.717 176.591 174.845 177.023 174.209C177.602 173.343 178.053 172.12 178.201 171.017C178.235 170.727 178.262 170.7 178.565 170.564C179.097 170.321 179.42 169.99 179.717 169.381C180.208 168.374 180.208 168.34 180.242 165.236C180.269 162.166 180.242 161.93 179.845 161.112C179.218 159.84 177.858 158.826 176.329 158.488L176.147 158.448L176.49 157.934C177.043 157.109 177.124 156.798 176.922 156.297C176.78 155.966 176.571 155.75 176.248 155.601C175.999 155.486 175.75 155.472 172.577 155.479C170.159 155.486 169.027 155.513 168.67 155.574ZM175.837 156.764C175.83 156.818 175.595 157.21 175.305 157.623L174.78 158.38H174.247C173.776 158.38 173.695 158.4 173.554 158.549C173.338 158.759 173.338 159.056 173.547 159.306L173.709 159.496L174.881 159.536C175.824 159.577 176.127 159.611 176.484 159.732C177.777 160.172 178.659 160.983 178.983 162.038C179.084 162.349 179.111 162.653 179.111 163.323V164.195L178.747 164.154C178.484 164.121 178.275 164.141 178.026 164.222C177.689 164.337 177.676 164.337 177.582 164.202C177.359 163.877 176.922 163.708 175.938 163.58C174.288 163.363 173.008 162.924 172.321 162.329C171.937 162.004 171.526 161.828 171.129 161.835C170.664 161.835 170.388 161.95 169.849 162.369C168.987 163.032 168.01 163.356 166.3 163.559C165.269 163.674 164.946 163.789 164.622 164.134L164.441 164.33L164.151 164.222C163.942 164.148 163.727 164.127 163.423 164.154L162.992 164.195L163.033 163.363C163.134 161.429 163.855 159.807 165.188 158.535C166.064 157.697 166.96 157.19 168.132 156.859C168.846 156.662 169.324 156.635 172.577 156.649C175.494 156.656 175.844 156.669 175.837 156.764ZM171.668 163.282C172.705 164.066 174.032 164.526 175.844 164.736C176.794 164.844 176.82 164.878 176.82 165.858C176.82 166.562 176.834 166.636 176.982 166.805C177.204 167.069 177.582 167.069 177.804 166.805C177.939 166.649 177.966 166.548 177.966 166.149C177.966 165.71 177.979 165.655 178.161 165.473C178.37 165.263 178.558 165.229 178.794 165.358C179.077 165.507 179.104 165.608 179.111 166.562C179.111 167.643 178.996 168.245 178.693 168.86C178.477 169.28 178.45 169.314 177.932 169.57C177.46 169.807 177.373 169.875 177.245 170.145C177.171 170.314 177.056 170.761 176.996 171.139C176.807 172.383 176.322 173.377 175.48 174.283C174.874 174.932 174.328 175.338 173.574 175.683C172.799 176.041 172.274 176.17 171.324 176.21C170.388 176.251 169.708 176.143 168.852 175.811C167.849 175.426 166.737 174.534 166.111 173.634C165.586 172.857 165.202 171.748 165.067 170.605C165.006 170.145 164.797 169.875 164.313 169.638C163.794 169.388 163.646 169.246 163.444 168.847C163.181 168.32 163.08 167.799 163.04 166.764C162.999 165.696 163.04 165.534 163.356 165.351C163.558 165.236 163.834 165.29 164.023 165.48C164.131 165.588 164.158 165.71 164.158 166.054C164.158 166.568 164.272 166.839 164.528 166.954C164.744 167.055 164.939 167.008 165.154 166.812C165.289 166.683 165.303 166.616 165.303 165.912C165.303 164.851 165.323 164.831 166.448 164.695C168.414 164.472 169.62 164.053 170.556 163.282C170.779 163.1 170.994 162.978 171.095 162.978C171.196 162.978 171.439 163.106 171.668 163.282ZM184.802 170.903C184.991 171.443 185.2 171.957 185.267 172.032C185.449 172.235 185.846 172.221 186.048 172.005C186.183 171.856 186.196 171.802 186.156 171.43L186.109 171.024H187.193C187.9 171.024 188.271 171.051 188.271 171.099C188.271 171.132 188.008 171.788 187.685 172.552L187.092 173.932H186.015H184.937L184.068 171.951C183.59 170.869 183.186 169.949 183.172 169.922C183.152 169.895 183.442 169.882 183.805 169.888L184.465 169.909L184.802 170.903ZM187.537 175.365C188.002 175.595 188.231 175.771 188.817 176.359C189.901 177.448 190.689 178.773 191.235 180.403C191.632 181.613 191.74 182.208 191.733 183.263C191.726 184.318 191.605 184.892 191.194 185.724C189.712 188.733 185.947 189.842 183.058 188.118C182.472 187.766 181.616 186.955 181.239 186.38C180.579 185.379 180.303 184.439 180.303 183.195C180.31 182.222 180.411 181.633 180.801 180.464C181.609 178.016 183.266 175.852 184.816 175.223C185.078 175.115 185.307 175.088 186.055 175.088L186.978 175.081L187.537 175.365ZM169.701 177.252C170.577 177.434 171.971 177.4 172.806 177.184C173.096 177.103 173.345 177.042 173.358 177.042C173.372 177.042 173.385 177.238 173.385 177.482C173.385 177.908 173.372 177.935 173.109 178.225C172.766 178.597 172.301 178.868 171.648 179.077C171.21 179.219 171.122 179.226 170.772 179.152C170.22 179.037 169.344 178.584 169.048 178.259C168.819 178.002 168.805 177.968 168.805 177.509C168.805 177.096 168.819 177.035 168.913 177.069C168.967 177.089 169.324 177.171 169.701 177.252ZM168.159 178.976C168.34 179.186 168.657 179.463 168.859 179.591L169.223 179.828L168.92 180.125C168.596 180.43 168.199 180.971 168.199 181.092C168.199 181.221 168.037 181.174 167.66 180.923C167.135 180.578 166.872 180.308 166.677 179.902C166.428 179.395 166.468 179.219 166.919 178.949C167.249 178.753 167.573 178.618 167.761 178.604C167.802 178.604 167.977 178.766 168.159 178.976ZM174.968 178.793C175.116 178.861 175.339 178.996 175.46 179.104C175.655 179.267 175.675 179.321 175.635 179.503C175.561 179.869 175.366 180.173 174.988 180.531C174.679 180.822 174.16 181.167 174.032 181.167C174.012 181.167 173.931 181.038 173.85 180.883C173.769 180.727 173.534 180.423 173.318 180.207L172.927 179.821L173.23 179.645C173.54 179.463 174.261 178.766 174.261 178.651C174.261 178.57 174.611 178.638 174.968 178.793ZM165.33 180.673C165.444 183.168 165.72 185.17 166.158 186.644C166.387 187.421 166.798 188.375 167.061 188.747L167.195 188.943H163.383H159.564L159.591 186.732C159.625 184.385 159.638 184.23 159.995 183.33C160.514 182.012 161.612 180.849 162.891 180.261C163.639 179.916 164.232 179.767 165.175 179.686C165.276 179.679 165.296 179.808 165.33 180.673ZM177.662 179.787C178.141 179.835 178.821 180.038 179.265 180.261C179.441 180.355 179.582 180.436 179.582 180.443C179.582 180.457 179.542 180.619 179.488 180.802C179.104 182.12 179.036 183.777 179.333 184.892C179.757 186.502 180.613 187.773 181.98 188.794L182.175 188.936L178.518 188.943H174.86L174.988 188.76C175.433 188.125 175.952 186.786 176.241 185.508C176.565 184.108 176.82 181.789 176.82 180.288V179.672L177.043 179.706C177.157 179.727 177.44 179.76 177.662 179.787ZM171.904 180.606C172.072 180.687 172.314 180.835 172.442 180.944L172.671 181.146L172.341 181.545C172.153 181.762 171.978 181.965 171.937 181.992C171.904 182.019 171.499 182.046 171.048 182.046H170.226L169.883 181.627C169.701 181.39 169.546 181.18 169.546 181.153C169.546 181.059 170.065 180.687 170.388 180.558C170.812 180.389 171.472 180.409 171.904 180.606ZM167.256 182.025C167.458 182.147 167.828 182.316 168.084 182.397C168.529 182.546 168.556 182.546 168.758 182.431C168.96 182.309 168.96 182.309 169.115 182.499C169.203 182.6 169.277 182.749 169.277 182.823C169.277 182.972 168.394 188.422 168.354 188.463C168.3 188.537 168.044 188.206 167.808 187.732C167.189 186.529 166.791 184.723 166.555 181.985L166.515 181.559L166.704 181.681C166.805 181.748 167.054 181.904 167.256 182.025ZM175.574 182.093C175.359 184.541 174.928 186.414 174.322 187.59C173.978 188.246 173.81 188.469 173.763 188.334C173.742 188.28 173.54 187.076 173.318 185.663C173.089 184.25 172.887 183.013 172.867 182.918C172.846 182.796 172.887 182.681 173.015 182.533C173.183 182.33 173.197 182.323 173.358 182.431C173.473 182.506 173.601 182.526 173.769 182.499C174.059 182.451 174.995 182.005 175.339 181.748C175.467 181.654 175.588 181.579 175.601 181.572C175.615 181.572 175.601 181.809 175.574 182.093ZM172.2 185.947C172.449 187.469 172.671 188.76 172.685 188.828C172.719 188.936 172.611 188.943 171.102 188.943C170.018 188.943 169.479 188.922 169.479 188.875C169.479 188.787 170.341 183.567 170.388 183.344C170.422 183.202 170.455 183.195 171.089 183.195H171.749L172.2 185.947Z" fill="white"/>
<path d="M185.806 178.597C185.617 178.672 185.442 178.922 185.442 179.118C185.442 179.206 185.388 179.28 185.301 179.307C185.078 179.382 184.641 179.808 184.479 180.112C184.277 180.497 184.277 181.228 184.479 181.613C184.755 182.134 185.24 182.492 185.765 182.56C186.223 182.62 186.311 182.654 186.452 182.803C186.641 183.013 186.628 183.364 186.419 183.567C186.176 183.817 185.914 183.79 185.543 183.466C185.186 183.155 184.95 183.121 184.674 183.337C184.54 183.445 184.499 183.533 184.499 183.743C184.499 183.959 184.546 184.061 184.769 184.304C184.917 184.466 185.126 184.635 185.233 184.683C185.375 184.737 185.442 184.825 185.469 184.98C185.523 185.251 185.685 185.413 185.954 185.467C186.116 185.494 186.203 185.467 186.372 185.325C186.493 185.224 186.587 185.082 186.587 184.994C186.587 184.892 186.688 184.777 186.937 184.615C187.874 183.993 188.015 182.729 187.227 181.944C186.931 181.64 186.459 181.437 186.062 181.437C185.779 181.437 185.442 181.126 185.442 180.862C185.442 180.605 185.779 180.288 186.048 180.288C186.203 180.288 186.324 180.355 186.52 180.558C186.715 180.761 186.836 180.829 186.991 180.829C187.254 180.829 187.598 180.511 187.598 180.267C187.598 180.024 187.254 179.591 186.904 179.409C186.675 179.287 186.587 179.199 186.587 179.091C186.587 178.76 186.122 178.462 185.806 178.597Z" fill="white"/>
<ellipse cx="315.501" cy="29.5009" rx="28.5009" ry="28.5009" stroke="white" stroke-width="2"/>
<path d="M330.006 42.668V40.162H327.5V24.1491H330.006V20.5813H327.967L315.522 12.766L303.077 20.5813H301.038V24.1491H303.544V40.162H301.038V42.668H298.617V46.2358H332.385V42.668H330.006ZM326.438 40.1196H323.805L323.804 24.1492H326.438L326.438 40.1196ZM312.974 40.1196H308.301L308.302 24.1492H312.974L312.974 40.1196ZM314.036 24.1492H316.669V40.1621H314.036V24.1492ZM317.688 24.1492H322.743V40.1621H317.688V24.1492ZM315.522 13.9978L325.971 20.5387L305.073 20.539L315.522 13.9978ZM302.1 23.0873V21.6433H328.944V23.0873H302.1ZM304.606 24.1492H307.24V40.1621H304.606V24.1492ZM302.1 41.1815H328.987V42.6256H302.1V41.1815ZM331.323 45.1739H299.722V43.7298H331.409L331.408 45.1739H331.323Z" fill="white"/>
</svg>
