<svg width="36" height="35" viewBox="0 0 36 35" fill="none" xmlns="http://www.w3.org/2000/svg">
<path d="M16.9779 0.884023C16.6358 1.06974 16.6358 1.09628 16.6289 4.02138V6.75413L13.2965 6.77403L9.95716 6.79393L9.56712 6.97965C9.10181 7.20517 8.67755 7.64294 8.52017 8.07408C8.4449 8.27307 8.39015 8.7042 8.36962 9.26137L8.32857 10.1435H8.1096C7.80167 10.1435 7.09686 10.5017 6.83683 10.7869C6.41941 11.2512 6.34414 11.5232 6.30993 12.664L6.28256 13.6921L4.76345 14.3156C1.81418 15.5361 1.71154 15.5825 1.6089 15.7881C1.51994 15.9473 1.50625 17.1877 1.50625 24.7027V33.425H1.09568C0.863026 33.425 0.596155 33.4648 0.48667 33.5179C0.0350423 33.75 0.0350423 34.4266 0.48667 34.6587C0.774069 34.798 34.5367 34.798 34.8241 34.6587C35.2757 34.4266 35.2757 33.75 34.8241 33.5179C34.7146 33.4648 34.4477 33.425 34.215 33.425H33.8045V24.7027C33.8045 17.1877 33.7908 15.9473 33.7018 15.7881C33.5992 15.5825 33.4897 15.5361 30.5473 14.3156L29.0282 13.6921L29.0008 12.6972C28.9597 11.5563 28.8708 11.238 28.4739 10.7936C28.0702 10.3492 27.6664 10.1833 26.8932 10.1435L26.2431 10.1104L26.2089 9.14861C26.1815 8.29296 26.1542 8.15367 26.0036 7.86846C25.8052 7.48375 25.4151 7.12558 24.984 6.93322C24.6761 6.80056 24.5735 6.79393 21.3368 6.77403L17.9975 6.75413V6.09084V5.43419H19.8998C22.1716 5.43419 22.2743 5.41429 22.8628 4.84386C23.3623 4.35966 23.4718 4.04791 23.4718 3.11267C23.4718 2.64174 23.4376 2.30346 23.3623 2.09784C23.2254 1.69987 22.7875 1.22893 22.3496 1.00341L22.0006 0.824327L19.5714 0.811061C17.6348 0.797795 17.1079 0.811061 16.9779 0.884023ZM21.939 2.33663C22.0895 2.50245 22.1032 2.58204 22.1032 3.11931C22.1032 3.69637 22.0964 3.72953 21.9048 3.91525L21.7063 4.10761H19.8519H17.9975V3.11267V2.11111L19.8861 2.13101L21.7748 2.15091L21.939 2.33663ZM24.464 8.18021C24.5872 8.23327 24.724 8.33276 24.7651 8.40572C24.8061 8.48532 24.8403 8.89656 24.8403 9.34096V10.1435L17.2995 10.1303L9.75188 10.1104L9.73135 9.47362C9.71082 8.66441 9.79978 8.35929 10.1282 8.20674C10.354 8.09398 10.8399 8.08734 17.2995 8.08734C23.1228 8.08734 24.2655 8.10061 24.464 8.18021ZM27.338 11.5762C27.4269 11.6293 27.5296 11.7686 27.5706 11.8814C27.6185 12.0207 27.6459 13.4998 27.6459 16.4183V20.7562H17.6554H7.66481V16.4183C7.66481 13.5462 7.69218 12.014 7.74008 11.888C7.7743 11.7885 7.87694 11.6492 7.95905 11.5895C8.10275 11.4834 8.71861 11.4701 17.6417 11.4701C26.1747 11.4701 27.1874 11.4834 27.338 11.5762ZM6.29624 24.2716V33.425H4.58553H2.87482V24.9813V16.5443L4.57185 15.8346C5.50247 15.4499 6.26887 15.1248 6.28256 15.1248C6.2894 15.1182 6.29624 19.2372 6.29624 24.2716ZM31.2931 16.0667L32.4359 16.5377V24.9813V33.425H30.7252H29.0145V24.2716V15.1248L29.5824 15.357C29.8904 15.4897 30.6568 15.808 31.2931 16.0667ZM27.6459 22.746V23.4093H17.6554H7.66481V22.746V22.0827H17.6554H27.6459V22.746ZM27.6117 25.4324V26.0957H17.6554H7.69903L7.6785 25.5053C7.66481 25.1803 7.67165 24.8752 7.69218 24.8221C7.7264 24.7492 9.43711 24.7359 17.669 24.7492L27.6117 24.7691V25.4324ZM13.8918 30.4402V33.425H10.7783H7.66481V30.4402V27.4554H10.7783H13.8918V30.4402ZM20.0504 30.4402V33.425H17.6554H15.2604V30.4402V27.4554H17.6554H20.0504V30.4402ZM27.6459 30.4402V33.425H24.5324H21.4189V30.4402V27.4554H24.5324H27.6459V30.4402Z" fill="white"/>
<path d="M9.30049 13.6523L9.10205 13.8447V16.0998C9.10205 18.2688 9.10889 18.355 9.23891 18.5208C9.40314 18.7265 9.79318 18.8193 10.0258 18.7132C10.3611 18.5606 10.4364 18.3484 10.4706 17.3468L10.5048 16.4116L11.1823 17.4264C11.5518 17.9836 11.935 18.4943 12.0239 18.5673C12.2361 18.7265 12.6398 18.7397 12.8588 18.5938C13.1804 18.3683 13.2078 18.1892 13.2078 16.0401C13.2078 14.3753 13.1872 14.0105 13.1051 13.8248C12.9135 13.4401 12.4003 13.3406 12.065 13.6191L11.8734 13.7783L11.8392 14.8595L11.805 15.9473L11.0386 14.8064C10.6212 14.1829 10.2037 13.6258 10.1216 13.5661C9.86845 13.3936 9.53315 13.4334 9.30049 13.6523Z" fill="white"/>
<path d="M16.4923 13.5197C15.2469 13.9177 14.5079 14.9856 14.5968 16.2922C14.6584 17.2872 15.199 18.103 16.0749 18.5209C16.4718 18.7066 16.5881 18.7332 17.0739 18.7332C17.7103 18.7332 18.0867 18.5939 18.5451 18.1959C19.1678 17.652 19.5647 16.3453 19.2705 15.7882C19.1268 15.5228 18.8873 15.4499 18.1277 15.4499C17.3682 15.4499 17.115 15.5295 16.985 15.8147C16.7592 16.2856 17.1013 16.7765 17.6487 16.7765C17.9156 16.7765 17.9224 16.8958 17.6693 17.1612C16.8481 18.0168 15.548 16.7035 16.0475 15.5295C16.3486 14.8396 16.9987 14.6075 17.6693 14.9524C18.0798 15.1647 18.2783 15.1647 18.5383 14.9458C19.0036 14.5677 18.8599 14.0702 18.1756 13.7121C17.8198 13.533 17.6761 13.4998 17.2108 13.4799C16.9097 13.4733 16.5881 13.4865 16.4923 13.5197Z" fill="white"/>
<path d="M22.6233 13.5926C21.8296 13.8646 21.2342 14.4217 20.9332 15.1646C20.721 15.6886 20.721 16.5244 20.9263 17.0417C21.6311 18.7928 23.9098 19.3234 25.3194 18.0566C25.5931 17.8111 25.7984 17.5458 25.949 17.254C26.1611 16.8427 26.1748 16.7698 26.1748 16.1131C26.1748 15.4697 26.1611 15.3835 25.9626 14.9855C25.6821 14.4151 25.2236 13.9707 24.6488 13.7054C24.0398 13.4268 23.2323 13.387 22.6233 13.5926ZM24.074 14.9126C24.6009 15.1779 24.8404 15.556 24.8404 16.1198C24.8404 17.3535 23.3145 17.8907 22.466 16.9555C22.0485 16.4912 22.0143 15.9141 22.3702 15.3636C22.7191 14.833 23.4992 14.6274 24.074 14.9126Z" fill="white"/>
</svg>
